<svg width="41" height="30" viewBox="0 0 41 30" fill="none" xmlns="http://www.w3.org/2000/svg">
<path d="M1.4375 12.8571H38.8125C39.1937 12.8571 39.5594 12.7443 39.829 12.5433C40.0985 12.3424 40.25 12.0699 40.25 11.7857V9.64286C40.25 9.3587 40.0985 9.08617 39.829 8.88524C39.5594 8.68431 39.1937 8.57143 38.8125 8.57143H1.4375C1.05625 8.57143 0.690618 8.68431 0.421034 8.88524C0.15145 9.08617 0 9.3587 0 9.64286L0 11.7857C0 12.0699 0.15145 12.3424 0.421034 12.5433C0.690618 12.7443 1.05625 12.8571 1.4375 12.8571ZM38.8125 25.7143H1.4375C1.05625 25.7143 0.690618 25.8272 0.421034 26.0281C0.15145 26.229 0 26.5016 0 26.7857L0 28.9286C0 29.2127 0.15145 29.4853 0.421034 29.6862C0.690618 29.8871 1.05625 30 1.4375 30H38.8125C39.1937 30 39.5594 29.8871 39.829 29.6862C40.0985 29.4853 40.25 29.2127 40.25 28.9286V26.7857C40.25 26.5016 40.0985 26.229 39.829 26.0281C39.5594 25.8272 39.1937 25.7143 38.8125 25.7143ZM39.0973 2.614e-07H15.5277C15.3763 -8.77996e-05 15.2263 0.0220746 15.0864 0.0652198C14.9465 0.108365 14.8194 0.171646 14.7124 0.251444C14.6053 0.331241 14.5204 0.425988 14.4625 0.530265C14.4046 0.634542 14.3749 0.746302 14.375 0.859152V3.42656C14.3749 3.53941 14.4046 3.65117 14.4625 3.75545C14.5204 3.85973 14.6053 3.95447 14.7124 4.03427C14.8194 4.11407 14.9465 4.17735 15.0864 4.22049C15.2263 4.26364 15.3763 4.2858 15.5277 4.28571H39.0973C39.2487 4.2858 39.3987 4.26364 39.5386 4.22049C39.6785 4.17735 39.8056 4.11407 39.9126 4.03427C40.0197 3.95447 40.1046 3.85973 40.1625 3.75545C40.2204 3.65117 40.2501 3.53941 40.25 3.42656V0.859152C40.2501 0.746302 40.2204 0.634542 40.1625 0.530265C40.1046 0.425988 40.0197 0.331241 39.9126 0.251444C39.8056 0.171646 39.6785 0.108365 39.5386 0.0652198C39.3987 0.0220746 39.2487 -8.77996e-05 39.0973 2.614e-07ZM39.0973 17.1429H15.5277C15.3763 17.1428 15.2263 17.1649 15.0864 17.2081C14.9465 17.2512 14.8194 17.3145 14.7124 17.3943C14.6053 17.4741 14.5204 17.5688 14.4625 17.6731C14.4046 17.7774 14.3749 17.8892 14.375 18.002V20.5694C14.3749 20.6823 14.4046 20.794 14.4625 20.8983C14.5204 21.0026 14.6053 21.0973 14.7124 21.1771C14.8194 21.2569 14.9465 21.3202 15.0864 21.3634C15.2263 21.4065 15.3763 21.4287 15.5277 21.4286H39.0973C39.2487 21.4287 39.3987 21.4065 39.5386 21.3634C39.6785 21.3202 39.8056 21.2569 39.9126 21.1771C40.0197 21.0973 40.1046 21.0026 40.1625 20.8983C40.2204 20.794 40.2501 20.6823 40.25 20.5694V18.002C40.2501 17.8892 40.2204 17.7774 40.1625 17.6731C40.1046 17.5688 40.0197 17.4741 39.9126 17.3943C39.8056 17.3145 39.6785 17.2512 39.5386 17.2081C39.3987 17.1649 39.2487 17.1428 39.0973 17.1429Z" fill="#4D648D"/>
</svg>
