<?xml version="1.0" encoding="UTF-8"?>
<svg version="1.1" xmlns="http://www.w3.org/2000/svg" width="1920" height="1920">
<path d="M0 0 C633.6 0 1267.2 0 1920 0 C1920 633.6 1920 1267.2 1920 1920 C1286.4 1920 652.8 1920 0 1920 C0 1286.4 0 652.8 0 0 Z " fill="#EDEEF0" transform="translate(0,0)"/>
<path d="M0 0 C4.01457276 1.61924295 6.806577 4.42209907 9.8125 7.4375 C10.34222412 7.96883545 10.87194824 8.5001709 11.41772461 9.04760742 C17.90371681 15.73576041 22.70660715 23.28219539 26 32 C26.33 31.01 26.66 30.02 27 29 C27.66 29 28.32 29 29 29 C32.51459285 36.76139255 33.53601152 44.37899312 30.625 52.5625 C29 56 29 56 27 58 C27.721875 58.639375 28.44375 59.27875 29.1875 59.9375 C37.45804533 68.30123457 42.93905869 82.56589086 43.24609375 94.21875 C43.27743408 95.2281665 43.30877441 96.23758301 43.34106445 97.27758789 C43.37288818 98.34098389 43.40471191 99.40437988 43.4375 100.5 C43.7530955 117.03553551 43.7530955 117.03553551 50 132 C50.26554687 132.721875 50.53109375 133.44375 50.8046875 134.1875 C52.79268056 138.86513073 55.7442345 142.9761367 58.54296875 147.20507812 C58.98511719 147.89150391 59.42726563 148.57792969 59.8828125 149.28515625 C60.28902832 149.90269775 60.69524414 150.52023926 61.11376953 151.15649414 C62 153 62 153 62 157 C56.28264895 159.45029331 52.20970773 160.33266291 46 160 C46.33 160.99 46.66 161.98 47 163 C47.14591566 165.30939588 47.22086484 167.62368241 47.25 169.9375 C47.27578125 171.16339844 47.3015625 172.38929688 47.328125 173.65234375 C46.9775869 177.22866699 46.2778942 178.35156834 44 181 C44.27802838 183.39388923 44.27802838 183.39388923 45 186 C45.45603394 189.51797609 45.72855329 191.92025785 43.6953125 194.93359375 C42.63197009 196.15720069 41.5376255 197.35474623 40.41015625 198.51953125 C37.57039841 201.50088366 37.89366063 204.18923424 37.81152344 208.17163086 C37.48528792 221.18091952 37.48528792 221.18091952 33.546875 226.58984375 C27.33521601 232.25249248 20.76695696 231.79216333 12.78515625 231.54296875 C7.28655125 231.11785752 3.62971444 229.16230068 -0.8671875 226.0234375 C-4.80996789 223.47685366 -8.90040811 221.79237997 -13.25 220.0625 C-14.0145752 219.75626709 -14.77915039 219.45003418 -15.56689453 219.13452148 C-17.37500579 218.41561645 -19.18708147 217.70669455 -21 217 C-20.39671875 217.31453125 -19.7934375 217.6290625 -19.171875 217.953125 C-9.40969163 223.18061674 -9.40969163 223.18061674 -7 228 C-6.72309736 230.68991132 -6.55407278 233.37981504 -6.37890625 236.078125 C-5.95342898 239.35912496 -5.31948538 241.95710006 -4 245 C-1.73813151 246.68089435 -1.73813151 246.68089435 1.1015625 247.7109375 C2.1421582 248.14720459 3.18275391 248.58347168 4.25488281 249.03295898 C5.36702148 249.47583252 6.47916016 249.91870605 7.625 250.375 C9.90488383 251.32907828 12.18353143 252.28611603 14.4609375 253.24609375 C15.57694336 253.71128418 16.69294922 254.17647461 17.84277344 254.65576172 C22.04994688 256.4470312 26.16269941 258.38939946 30.25 260.4375 C30.87342285 260.74284668 31.4968457 261.04819336 32.13916016 261.36279297 C34.82870531 262.7191875 37.15886909 264.12863191 39.50390625 266.02734375 C48.44836646 273.09612686 60.78491423 276.16113629 72 276 C71.10539062 275.78085937 70.21078125 275.56171875 69.2890625 275.3359375 C61.68313688 273.34120647 54.07272045 271.24716629 48 266 C48 265.01 48 264.02 48 263 C49.41042956 262.15615325 50.82864132 261.32530504 52.25 260.5 C53.03890625 260.0359375 53.8278125 259.571875 54.640625 259.09375 C57 258 57 258 61 258 C61 257.34 61 256.68 61 256 C87.49110665 246.61309526 110.94821607 245.79417746 137.54443359 256.08129883 C139.98477017 256.99430206 142.42839083 257.7385187 144.9375 258.4375 C149.92330603 259.8631538 154.54077783 261.92682334 159.23828125 264.109375 C163.02967972 265.33206079 165.17549099 264.9287936 168.71020508 263.12939453 C170.01911688 262.40216522 171.32137501 261.66287366 172.61791992 260.91381836 C191.83384035 249.86130853 212.28699812 249.09108109 234 252 C233.96519531 251.18402344 233.93039062 250.36804688 233.89453125 249.52734375 C233.70456113 241.21388942 234.30271613 233.18629096 235.375 224.9375 C235.50108643 223.95064209 235.62717285 222.96378418 235.75708008 221.94702148 C236.42698467 217.05625824 237.36081105 212.66772763 239 208 C240.65395777 201.33187263 242.0006991 194.58567968 243.39941406 187.86035156 C243.91172692 185.42040949 244.44813271 182.98766432 244.9921875 180.5546875 C247.57361633 168.36493361 247.21328792 156.44179534 247 144 C245.68 151.59 244.36 159.18 243 167 C242.34 166.67 241.68 166.34 241 166 C240.50097656 164.30786133 240.50097656 164.30786133 240.140625 162.08203125 C239.99729736 161.24986084 239.85396973 160.41769043 239.70629883 159.56030273 C239.55572021 158.65352783 239.4051416 157.74675293 239.25 156.8125 C237.34816829 146.05786111 234.61845592 135.6299083 231.60083008 125.14038086 C231.02855094 123.10170908 230.50274757 121.05680072 230 119 C229.38125 119.165 228.7625 119.33 228.125 119.5 C222.45800507 120.40671919 216.85638258 120.27389251 211.1875 119.4375 C207.96819622 118.99563477 206.13695077 119.34342891 203 120 C193.78947368 120.39473684 193.78947368 120.39473684 191 119 C189.16697564 118.9464376 187.33352032 118.90741071 185.5 118.875 C176.34045251 118.28903568 168.35005689 114.58930616 160 111 C160 110.34 160 109.68 160 109 C159.071875 108.814375 159.071875 108.814375 158.125 108.625 C156 108 156 108 154 106 C151.54152133 96.60941753 157.4622408 87.79984311 162 80 C162.66 79.34 163.32 78.68 164 78 C163.67 82.29 163.34 86.58 163 91 C164.97102077 83.20161348 166.32814834 76.22155562 166.203125 68.16796875 C167.43644954 63.26489914 169.93519753 59.99755145 174 57 C177.5211107 56.00241394 180.69338799 56.2226539 184.3125 56.5625 C185.79810425 56.66546387 185.79810425 56.66546387 187.3137207 56.77050781 C213.49991961 59.11413893 247.9940996 70.13957837 266.37109375 89.93359375 C275.20216055 101.13655379 283.08350092 115.65808269 288 129.0625 C291.005983 137.14370081 295.73067921 144.53925625 300 152 C300.43763672 152.77053711 300.87527344 153.54107422 301.32617188 154.33496094 C307.19140857 164.65795183 313.2885738 174.81819309 319.58520508 184.8840332 C321.06506076 187.25101845 322.53381067 189.62453387 324 192 C324.42941895 192.67869141 324.85883789 193.35738281 325.30126953 194.05664062 C326.28038271 195.65844463 327.15193291 197.32512064 328 199 C327.67 199.99 327.34 200.98 327 202 C326.23816406 201.10539063 325.47632813 200.21078125 324.69140625 199.2890625 C319.19877395 192.85241193 313.66725875 186.46608205 307.98046875 180.19921875 C305.26219657 177.18070349 302.62678189 174.09825556 300 171 C300.78375 172.010625 301.5675 173.02125 302.375 174.0625 C312.12032685 187.10170189 320.56338103 201.09665348 329 215 C329.42120117 215.69077637 329.84240234 216.38155273 330.27636719 217.09326172 C334.55093386 224.14575381 338.03829591 231.18125894 340.84375 238.953125 C342.26961104 242.71046153 344.01853935 246.22744945 345.88671875 249.78125 C352.53049888 263.02218724 355.3298045 281.84392239 352.25 296.375 C347.80243817 309.27292932 340.70154579 315.11982448 328.81640625 321.203125 C322.38424287 324.32594488 315.90946511 326.41148624 308.9375 327.9375 C303.31224778 329.20845678 297.74590881 330.58671608 292.1875 332.125 C286.84041607 333.57505666 281.55483409 334.70497199 276.07421875 335.5078125 C273.46840385 335.92500777 270.91988444 336.43646039 268.33984375 336.984375 C262.87726832 338.0918952 257.42312418 338.64924324 251.875 339.125 C246.986875 339.558125 246.986875 339.558125 242 340 C253.88 340 265.76 340 278 340 C275.51427839 342.48572161 273.29541466 343.15476391 270 344.375 C266.15600127 345.80725914 262.32869297 347.26050513 258.5234375 348.79296875 C220.5917127 364.01434416 220.5917127 364.01434416 201 368 C199.58323783 368.3172822 198.16656999 368.6349859 196.75 368.953125 C173.73259248 373.85118647 148.19979776 371.57948035 126 364 C126 363.34 126 362.68 126 362 C128.60295276 360.68504458 131.20728033 359.37295014 133.8125 358.0625 C134.55048828 357.68931641 135.28847656 357.31613281 136.04882812 356.93164062 C136.76103516 356.57392578 137.47324219 356.21621094 138.20703125 355.84765625 C138.8616333 355.51773682 139.51623535 355.18781738 140.19067383 354.84790039 C142 354 142 354 145 353 C139.80282788 353.56403418 135.8854233 355.26126887 131.3125 357.625 C130.60843018 357.9854541 129.90436035 358.3459082 129.17895508 358.71728516 C108.5865401 369.4070157 96.29565619 382.03904806 89 404.0625 C85.53025932 415.0537375 82.99430586 426.24236341 80.5625 437.5 C80.38887939 438.30349884 80.21525879 439.10699768 80.03637695 439.93484497 C77.84009108 449.96519338 77.84009108 449.96519338 76.390625 460.12109375 C75.92207958 464.77374978 74.83047249 469.11341199 73.64550781 473.62695312 C73.3704541 474.67979492 73.3704541 474.67979492 73.08984375 475.75390625 C72.90534668 476.45789551 72.72084961 477.16188477 72.53076172 477.88720703 C72.01839551 479.92677335 71.56410629 481.97008019 71.12890625 484.02734375 C68.91410704 494.23647764 65.06929047 502.89238488 60 512 C59.62166016 512.68030273 59.24332031 513.36060547 58.85351562 514.06152344 C56.61210846 518.06675441 54.3249068 522.04271182 52 526 C52.33 526 52.66 526 53 526 C69.17535531 509.71805256 82.47707478 491.11496334 92.34375 470.390625 C94 467 94 467 95.45727539 464.70727539 C97.20617194 461.63819581 98.25512284 458.65447005 99.33984375 455.29296875 C99.6506916 454.33497879 99.6506916 454.33497879 99.96781921 453.3576355 C100.63150602 451.30313454 101.2850922 449.2456078 101.9375 447.1875 C102.16032654 446.49179901 102.38315308 445.79609802 102.61273193 445.07931519 C105.79402495 435.14341282 108.78422516 425.20248565 111 415 C113.57651135 419.98125528 114.15940578 424.05150805 114.16796875 429.60546875 C114.17129715 430.36233475 114.17462555 431.11920074 114.17805481 431.89900208 C114.18312156 433.50875238 114.18546321 435.11851321 114.18530273 436.72827148 C114.18745174 439.13349127 114.20550327 441.5382231 114.22460938 443.94335938 C114.27660249 457.76095216 113.05450868 471.11321551 109.6875 484.5625 C109.4694873 485.4488916 109.25147461 486.3352832 109.02685547 487.24853516 C103.16105272 510.57258621 93.25257797 532.28713569 78 551 C77.52433594 551.58394531 77.04867187 552.16789062 76.55859375 552.76953125 C60.04093243 572.83574385 40.99004115 587.91807533 18 600 C17.4009082 600.31807617 16.80181641 600.63615234 16.18457031 600.96386719 C-15.42032748 617.64665107 -15.42032748 617.64665107 -29 617 C-29 617.66 -29 618.32 -29 619 C-70.64194937 626.19703962 -112.35684552 632.06146291 -154 621 C-156.9853224 620.46861999 -159.9743146 620.0132574 -162.97265625 619.5625 C-166.39884054 618.92589285 -169.65897271 617.98966646 -173 617 C-174.23234375 616.66742187 -175.4646875 616.33484375 -176.734375 615.9921875 C-187.92346308 612.91867615 -198.43108115 608.76637517 -209 604 C-209.86737793 603.61150879 -210.73475586 603.22301758 -211.62841797 602.82275391 C-223.67478658 597.3866353 -235.05256593 591.41101929 -246 584 C-246.8979126 583.39720215 -246.8979126 583.39720215 -247.81396484 582.78222656 C-256.55348961 576.87012504 -264.59660725 570.29467615 -272.50341797 563.31738281 C-273.79722653 562.17849358 -275.10265224 561.05282709 -276.41015625 559.9296875 C-295.30733558 543.69049293 -309.50180899 523.38234897 -322 502 C-322.45503906 501.23526367 -322.91007813 500.47052734 -323.37890625 499.68261719 C-339.16025921 472.88964854 -351.74604982 435.54132863 -351 404 C-348.28687273 406.71312727 -347.44738466 409.89531544 -346.1875 413.4375 C-343.73534925 420.11398743 -341.14987187 426.61491489 -338 433 C-337.45714355 434.10770752 -337.45714355 434.10770752 -336.90332031 435.23779297 C-330.60061259 447.99469193 -323.57816746 459.65778525 -315 471 C-314.43877441 471.75442383 -313.87754883 472.50884766 -313.29931641 473.28613281 C-305.83615869 483.30231153 -298.07462606 492.41223912 -289 501 C-286.59915209 503.37170256 -284.22886356 505.75564943 -281.921875 508.21875 C-274.96820982 515.52259976 -267.1937145 521.44776138 -259.10351562 527.43017578 C-257.20913898 528.84392251 -255.34304216 530.28594105 -253.484375 531.74609375 C-235.97878601 545.31744733 -215.85613881 555.36829088 -196 565 C-195.34 554.77 -194.68 544.54 -194 534 C-191.19161951 536.80838049 -190.52396003 537.69159192 -189.39453125 541.23046875 C-189.13349609 542.03291016 -188.87246094 542.83535156 -188.60351562 543.66210938 C-188.21196289 544.91217773 -188.21196289 544.91217773 -187.8125 546.1875 C-187.40354492 547.4549707 -187.40354492 547.4549707 -186.98632812 548.74804688 C-186.3160113 550.829557 -185.65426485 552.91339988 -185 555 C-187.06660381 531.96549457 -196.18530529 508.48105524 -207.609375 488.515625 C-209.49040322 485.11286608 -210.69721003 481.66021944 -212 478 C-212.63492388 476.76897731 -213.28415657 475.54526017 -213.9453125 474.328125 C-216.12646486 470.01797719 -217.22850581 465.77654319 -218.1875 461.0625 C-218.35185547 460.31548828 -218.51621094 459.56847656 -218.68554688 458.79882812 C-219.67387226 454.16130133 -220.32789429 449.56849478 -220.74731445 444.84545898 C-220.91172062 442.90843872 -220.91172062 442.90843872 -222 441 C-222.33 442.98 -222.66 444.96 -223 447 C-225 446 -225 446 -225.7902832 443.6652832 C-226.04124756 442.63749756 -226.29221191 441.60971191 -226.55078125 440.55078125 C-226.83477783 439.40279053 -227.11877441 438.2547998 -227.41137695 437.07202148 C-227.70874756 435.83137939 -228.00611816 434.5907373 -228.3125 433.3125 C-228.62082764 432.05058838 -228.92915527 430.78867676 -229.24682617 429.48852539 C-231.15148051 421.6499311 -233.00917773 413.80004065 -234.8125 405.9375 C-235.00690674 405.09034424 -235.20131348 404.24318848 -235.40161133 403.37036133 C-239.33547777 385.89016094 -239.33547777 385.89016094 -239 377 C-223.37017048 375.40511944 -205.74012229 385.77626807 -193.875 395.15234375 C-182.77273278 404.36105149 -173.30654374 414.49177777 -166 427 C-172.92501269 412.20565471 -184.66371809 389.66814096 -200 382 C-200 381.34 -200 380.68 -200 380 C-200.69738281 379.75636719 -201.39476562 379.51273438 -202.11328125 379.26171875 C-205.46161197 377.79823997 -208.18552038 375.89631142 -211.1875 373.8125 C-216.70404424 370.13155587 -222.32508281 367.34986385 -228.5 364.9375 C-229.6295813 364.4895105 -229.6295813 364.4895105 -230.78198242 364.0324707 C-239.42772385 360.79984951 -244.90253871 362.42245704 -253.25 365.8125 C-262.69976817 369.59377482 -271.98123027 372.75674581 -282 374.625 C-286.6413781 375.38829612 -286.6413781 375.38829612 -291 377 C-293.7390173 377.1113726 -296.45176906 377.16412248 -299.19140625 377.16796875 C-300.010681 377.17129715 -300.82995575 377.17462555 -301.67405701 377.17805481 C-303.41331419 377.18312493 -305.15258113 377.18546311 -306.8918457 377.18530273 C-309.52767516 377.18747135 -312.16307377 377.20557598 -314.79882812 377.22460938 C-316.49218608 377.22754702 -318.18554601 377.22952933 -319.87890625 377.23046875 C-320.65738419 377.23765427 -321.43586212 377.24483978 -322.2379303 377.25224304 C-327.03752842 377.2326497 -331.32877432 376.58559401 -335.98860168 375.45045471 C-338.44043338 374.90136449 -340.7446546 374.77145238 -343.25390625 374.8046875 C-344.12724609 374.81113281 -345.00058594 374.81757812 -345.90039062 374.82421875 C-346.77888672 374.84097656 -347.65738281 374.85773438 -348.5625 374.875 C-349.93245117 374.88853516 -349.93245117 374.88853516 -351.33007812 374.90234375 C-353.55367319 374.92562747 -355.77668677 374.9583229 -358 375 C-358 374.67 -358 374.34 -358 374 C-357.26885986 373.82871582 -356.53771973 373.65743164 -355.78442383 373.48095703 C-352.45949301 372.69964445 -349.13599775 371.91238514 -345.8125 371.125 C-344.08676758 370.72087891 -344.08676758 370.72087891 -342.32617188 370.30859375 C-341.21435547 370.04433594 -340.10253906 369.78007813 -338.95703125 369.5078125 C-337.42526245 369.14647217 -337.42526245 369.14647217 -335.86254883 368.77783203 C-333.13350392 368.03627663 -330.59967916 367.10669073 -328 366 C-328.55123535 366.11069824 -329.1024707 366.22139648 -329.67041016 366.33544922 C-343.73967479 369.12261956 -357.66681505 371.2869892 -372 372 C-373.31790527 372.06799805 -374.63581055 372.13599609 -375.99365234 372.20605469 C-395.69395166 373.13098244 -412.73406524 372.41159669 -431 364 C-431.69754395 363.68015137 -432.39508789 363.36030273 -433.11376953 363.03076172 C-436.89291714 361.24154901 -440.4618658 359.22321567 -444 357 C-444.82242188 356.50886719 -445.64484375 356.01773437 -446.4921875 355.51171875 C-456.33341872 349.36509117 -463.78197877 341.29650579 -467.6328125 330.171875 C-469.92274783 316.62715112 -467.45473449 302.86833169 -465.1875 289.5 C-465.05689178 288.72527344 -464.92628357 287.95054687 -464.79171753 287.15234375 C-462.62769473 274.45719084 -459.82684826 262.12619617 -455.8125 249.875 C-455.27474448 248.22740861 -454.73945775 246.5790087 -454.20703125 244.9296875 C-453.9747583 244.22054199 -453.74248535 243.51139648 -453.50317383 242.78076172 C-452.90936183 240.98764043 -452.90936183 240.98764043 -453 239 C-460.61506147 256.04436506 -460.61506147 256.04436506 -467.0625 273.55078125 C-468 276 -468 276 -470 278 C-470.7675495 255.8689895 -466.2252556 232.86328825 -459 212 C-456.72546771 205.4096885 -454.67052761 199.02831509 -453.4296875 192.16015625 C-453 190 -453 190 -452 187.0625 C-451.15742759 184.482122 -450.63322486 182.16906266 -450.17578125 179.5078125 C-448.79922923 171.77789455 -447.26245894 164.08181171 -445.70581055 156.38647461 C-445.36221114 154.68013049 -445.02200151 152.97310003 -444.68530273 151.26538086 C-438.27926117 118.79704613 -426.43093647 100.07213715 -399.625 80.5 C-399.05418701 80.07831543 -398.48337402 79.65663086 -397.89526367 79.22216797 C-394.39624259 76.72498804 -391.13859097 75.15030323 -387 74 C-391.1171723 78.92052299 -395.41575436 83.51428189 -400 88 C-395.94095247 84.98015009 -391.90273454 81.93885682 -387.921875 78.81640625 C-364.98467781 60.86886475 -364.98467781 60.86886475 -356.07421875 60.62890625 C-347.3273983 62.19377997 -342.16586863 71.67568681 -337.26123047 78.32617188 C-335.29806354 80.93156725 -333.21105909 83.43011864 -331.125 85.9375 C-323.23246109 95.57617584 -323.23246109 95.57617584 -322.5 100.0625 C-323.57857112 106.39910534 -328.70903554 109.51818318 -333.5703125 113.16015625 C-335.17915725 114.37842936 -336.75867423 115.63651482 -338.3046875 116.93359375 C-342.48832956 120.41513671 -345.68630433 122.58743397 -351.0625 123.54296875 C-353.19977879 124.04712524 -354.67836804 124.88332696 -356.5625 126 C-361.55109308 128.69304527 -366.96537161 128.90594287 -372.51171875 129.41015625 C-376.06943102 130.0117403 -378.06693489 130.96535123 -381 133 C-383.29629994 134.14814997 -385.07698086 134.30769809 -387.625 134.5625 C-388.44226563 134.64628906 -389.25953125 134.73007812 -390.1015625 134.81640625 C-390.72804688 134.87699219 -391.35453125 134.93757812 -392 135 C-392.02950374 139.08331765 -392.04696535 143.1666072 -392.0625 147.25 C-392.07506836 148.95929688 -392.07506836 148.95929688 -392.08789062 150.703125 C-392.10669776 157.32323542 -391.84038004 163.82393514 -391.22485352 170.41503906 C-390.96798707 173.368027 -390.89850844 176.28664129 -390.9375 179.25 C-390.94652344 180.16265625 -390.95554687 181.0753125 -390.96484375 182.015625 C-390.97644531 182.67046875 -390.98804688 183.3253125 -391 184 C-393.32127521 181.67872479 -393.98851952 179.82984925 -395.1640625 176.7734375 C-395.76347656 175.2265625 -395.76347656 175.2265625 -396.375 173.6484375 C-396.7875 172.56820312 -397.2 171.48796875 -397.625 170.375 C-398.04523438 169.28703125 -398.46546875 168.1990625 -398.8984375 167.078125 C-399.93703873 164.38720363 -400.97067 161.69447846 -402 159 C-399.88486151 171.09079163 -397.31652241 182.26203493 -392.44921875 193.58984375 C-391.37629023 196.11455155 -390.34047324 198.64118387 -389.33203125 201.19140625 C-385.75606778 210.18912035 -381.82085157 218.33810857 -376.38671875 226.390625 C-370.69482074 235.34064393 -367.54895599 245.09100783 -364.11328125 255.07421875 C-360.38301214 266.18586739 -360.38301214 266.18586739 -353 275 C-352.38898438 275.515625 -351.77796875 276.03125 -351.1484375 276.5625 C-346.8792339 279.99104961 -343.36274398 281.88276167 -338 283 C-338.65226563 282.64808594 -339.30453125 282.29617188 -339.9765625 281.93359375 C-347.43477023 277.7204764 -353.27196131 272.89467018 -357 265 C-356.67 264.01 -356.34 263.02 -356 262 C-353.15625 260.68359375 -353.15625 260.68359375 -349.5 259.4375 C-348.3140625 259.02371094 -347.128125 258.60992188 -345.90625 258.18359375 C-337.58799628 255.57783735 -329.91477376 254.64345414 -321.1875 254.6875 C-319.5940979 254.68943359 -319.5940979 254.68943359 -317.96850586 254.69140625 C-311.57367183 254.7699729 -305.74581228 255.20634886 -299.66015625 257.34375 C-290.64767816 259.56709261 -283.61130068 256.74764975 -275.25 253.3125 C-273.046875 252.43359375 -270.84375 251.5546875 -268.640625 250.67578125 C-267.00915527 250.01642578 -267.00915527 250.01642578 -265.34472656 249.34375 C-257.42604983 246.16240717 -249.54575641 243.02290489 -241.33203125 240.6875 C-238.33808546 239.80486272 -235.4188621 238.74227032 -232.49609375 237.6484375 C-210.03755855 231.81413884 -186.63807683 237.77934202 -165.43359375 245.2578125 C-157.88070956 247.89427482 -150.36024927 249.9731337 -142.5625 251.75 C-141.17683838 252.06614258 -141.17683838 252.06614258 -139.76318359 252.38867188 C-132.69214502 253.95062499 -125.77276232 255.16351059 -118.5 255.0625 C-117.6440625 255.05347656 -116.788125 255.04445313 -115.90625 255.03515625 C-115.2771875 255.02355469 -114.648125 255.01195312 -114 255 C-115.0209375 254.85304688 -115.0209375 254.85304688 -116.0625 254.703125 C-128.59949728 252.76922648 -140.53268143 249.70208815 -152.4375 245.375 C-153.27289307 245.07376221 -154.10828613 244.77252441 -154.96899414 244.4621582 C-155.74106201 244.17300537 -156.51312988 243.88385254 -157.30859375 243.5859375 C-157.99751709 243.3286084 -158.68644043 243.0712793 -159.39624023 242.80615234 C-161 242 -161 242 -162 240 C-160.63065308 240.03927612 -160.63065308 240.03927612 -159.23364258 240.0793457 C-155.83227656 240.16478542 -152.43205742 240.22734999 -149.0300293 240.2746582 C-147.56044475 240.29973644 -146.09098413 240.33380856 -144.62182617 240.37719727 C-142.50408319 240.43815499 -140.38799424 240.46627316 -138.26953125 240.48828125 C-136.99698486 240.51446533 -135.72443848 240.54064941 -134.41333008 240.56762695 C-130.13826625 239.85669616 -128.80450531 238.190594 -126 235 C-125.34 235 -124.68 235 -124 235 C-112.96705287 213.54142394 -105.60086766 187.355525 -112.79516602 163.44335938 C-114.0398174 159.88562854 -115.45176447 156.4355683 -117 153 C-117.29390625 152.33049316 -117.5878125 151.66098633 -117.890625 150.97119141 C-119.82557589 146.5952745 -121.88804637 142.29298985 -124 138 C-136.22818349 113.09312099 -134.37260438 81.03463357 -127.1875 54.75 C-126.95144043 53.86812012 -126.71538086 52.98624023 -126.47216797 52.07763672 C-123.7635298 42.83545659 -118.29996514 38.11978377 -110.625 32.75 C-109.83279053 32.18933838 -109.04058105 31.62867676 -108.22436523 31.05102539 C-106.60219586 29.90782706 -104.97679163 28.76920475 -103.34814453 27.63525391 C-101.85283392 26.59391574 -100.36119317 25.54727336 -98.87451172 24.49365234 C-87.15627214 16.19120963 -76.98334473 11.84842258 -62.69921875 10.39453125 C-59.43420199 10.04630877 -56.23138184 9.57613785 -53 9 C-54.63412443 10.70840281 -55.86906094 11.93453047 -58 13 C-42.40582335 13.43384108 -32.33859011 10.15406512 -19 2 C-19.55119651 7.23636687 -20.48904407 11.93276976 -22 17 C-19.43137994 15.61457508 -16.87050471 14.21728761 -14.3125 12.8125 C-13.59126953 12.42513672 -12.87003906 12.03777344 -12.12695312 11.63867188 C-6.89691048 8.74901361 -1.97950919 5.93852756 0 0 Z " fill="#051223" transform="translate(1019,500)"/>
<path d="M0 0 C12.54 0 25.08 0 38 0 C39.98 5.28 41.96 10.56 44 16 C45.23430288 19.07578984 46.47543052 22.13842733 47.76171875 25.19140625 C48.07905472 25.95122299 48.39639069 26.71103973 48.7233429 27.49388123 C49.70867317 29.85123806 50.69801066 32.20688642 51.6875 34.5625 C52.3576835 36.16460412 53.02760634 37.76681732 53.69726562 39.36914062 C54.92253255 42.29825498 56.14850933 45.22706478 57.37768555 48.15454102 C57.61939987 48.73027359 57.8611142 49.30600616 58.1101532 49.89918518 C59.39688527 52.9369955 60.70042621 55.96766115 62 59 C62.33 39.53 62.66 20.06 63 0 C74.88 0 86.76 0 99 0 C99 60.06 99 120.12 99 182 C92.4 182 85.8 182 79 182 C73.140625 170.28125 73.140625 170.28125 72.05664062 168.09765625 C71.4055732 166.80514901 70.74047018 165.51946849 70.05273438 164.24609375 C67.70697582 159.82654865 65.9410574 155.25625456 64.2265625 150.5625 C61.03184683 141.84009476 57.2619097 133.43193071 53.375 125 C52.71307949 123.55099229 52.05161992 122.10177392 51.390625 120.65234375 C47.66174985 112.48324006 47.66174985 112.48324006 43.70703125 104.421875 C42.0406892 101.08156461 40.63548487 97.73900742 39.3125 94.25 C38.89613281 93.16203125 38.47976563 92.0740625 38.05078125 90.953125 C37.22583992 88.63470252 36.5297458 86.39840954 36 84 C35.34 84 34.68 84 34 84 C34 116.34 34 148.68 34 182 C22.78 182 11.56 182 0 182 C0 121.94 0 61.88 0 0 Z " fill="#071425" transform="translate(885,1180)"/>
<path d="M0 0 C6.90960697 5.96122954 10.99656017 13.55781918 11.69628906 22.68994141 C11.69967285 24.40963135 11.69967285 24.40963135 11.703125 26.1640625 C11.70699219 28.05898437 11.70699219 28.05898437 11.7109375 29.9921875 C11.70320313 31.29414062 11.69546875 32.59609375 11.6875 33.9375 C11.69910156 35.90203125 11.69910156 35.90203125 11.7109375 37.90625 C11.70835938 39.16695312 11.70578125 40.42765625 11.703125 41.7265625 C11.70086914 42.8707666 11.69861328 44.0149707 11.69628906 45.19384766 C11.4375 48.3125 11.4375 48.3125 9.4375 53.3125 C-0.7925 53.3125 -11.0225 53.3125 -21.5625 53.3125 C-21.875 45.625 -21.875 45.625 -21.95043945 43.23168945 C-22.1783276 38.84636752 -22.78762169 35.89586138 -25.5625 32.3125 C-29.50032365 30.34358818 -34.27979869 30.72111029 -38.5625 31.3125 C-40.84418358 33.47413819 -40.84418358 33.47413819 -41.5625 36.3125 C-41.8925 37.3025 -42.2225 38.2925 -42.5625 39.3125 C-43.2812198 48.81789343 -43.2812198 48.81789343 -39.5625 57.3125 C-35.27754004 61.19445989 -30.410697 63.67962831 -25.3125 66.3125 C-24.50425781 66.73789063 -23.69601562 67.16328125 -22.86328125 67.6015625 C-18.88512073 69.67657103 -14.89503801 71.63456053 -10.77734375 73.41796875 C-2.34520249 77.10460513 6.44363708 82.77488096 10.39453125 91.40234375 C14.10188899 101.79390312 14.76775487 112.03732171 14.6875 123 C14.68406586 123.66513611 14.68063171 124.33027222 14.67709351 125.01556396 C14.57689851 141.52859391 14.16285969 158.17602457 3.21875 171.6328125 C-5.86718429 180.20068913 -19.67031916 181.81606974 -31.5625 181.625 C-32.56539062 181.62822266 -33.56828125 181.63144531 -34.6015625 181.63476562 C-46.03906366 181.55349139 -58.54928078 180.15292893 -67.9375 173 C-76.01271796 164.73251495 -77.92530872 154.44540666 -77.875 143.2265625 C-77.854375 142.05867188 -77.83375 140.89078125 -77.8125 139.6875 C-77.80734375 138.511875 -77.8021875 137.33625 -77.796875 136.125 C-77.64650652 119.39650652 -77.64650652 119.39650652 -75.5625 117.3125 C-73.1868148 117.2241033 -70.84041326 117.19719695 -68.46484375 117.21484375 C-67.40155602 117.21696617 -67.40155602 117.21696617 -66.31678772 117.21913147 C-64.04448288 117.22474557 -61.77227525 117.23730037 -59.5 117.25 C-57.96289204 117.25501319 -56.42578255 117.25957641 -54.88867188 117.26367188 C-51.11324358 117.27471958 -47.33788829 117.29199359 -43.5625 117.3125 C-43.532771 118.18986816 -43.532771 118.18986816 -43.50244141 119.08496094 C-43.40696519 121.74458025 -43.29737858 124.40343838 -43.1875 127.0625 C-43.14109375 128.44308594 -43.14109375 128.44308594 -43.09375 129.8515625 C-43.03574219 131.18574219 -43.03574219 131.18574219 -42.9765625 132.546875 C-42.9451416 133.36381836 -42.9137207 134.18076172 -42.88134766 135.02246094 C-42.63204975 137.70606284 -42.63204975 137.70606284 -40.5625 141.3125 C-35.2825 141.3125 -30.0025 141.3125 -24.5625 141.3125 C-22.88636326 135.44602142 -22.22402479 131.5944223 -22.25 125.75 C-22.23388672 125.02103516 -22.21777344 124.29207031 -22.20117188 123.54101562 C-22.19685075 118.74024838 -22.90031138 115.45435609 -25.5625 111.3125 C-31.06054861 105.93397419 -38.18914017 102.17898233 -45.3125 99.4375 C-56.27139214 95.13696505 -68.18018886 89.11944285 -74.0625 78.375 C-77.15575734 70.68474066 -77.87224019 62.71490454 -77.86328125 54.5 C-77.86756638 53.60563232 -77.8718515 52.71126465 -77.87626648 51.78979492 C-77.88196444 49.91423381 -77.88254389 48.03865062 -77.87817383 46.16308594 C-77.87500754 43.31927353 -77.89855202 40.47649736 -77.92382812 37.6328125 C-77.92610122 35.79687629 -77.92680457 33.96093733 -77.92578125 32.125 C-77.934991 31.28928467 -77.94420074 30.45356934 -77.95368958 29.5925293 C-77.87524376 19.41854401 -74.84928566 10.29127331 -68.0703125 2.625 C-53.00499602 -11.79157079 -16.62461035 -11.11403187 0 0 Z " fill="#081525" transform="translate(1168.5625,1183.6875)"/>
<path d="M0 0 C5.85901341 4.77682912 8.96710145 9.8356831 10.95703125 17.08203125 C11.2185498 17.93800903 11.2185498 17.93800903 11.48535156 18.8112793 C12.48614552 23.62928374 12.14293024 28.65175499 12.14233398 33.55419922 C12.14452407 35.57540841 12.16271266 37.59607447 12.18164062 39.6171875 C12.18357422 40.89464844 12.18550781 42.17210937 12.1875 43.48828125 C12.19160889 44.65681641 12.19571777 45.82535156 12.19995117 47.02929688 C11.95703125 50.08203125 11.95703125 50.08203125 9.95703125 54.08203125 C-0.27296875 54.08203125 -10.50296875 54.08203125 -21.04296875 54.08203125 C-21.41796875 46.45703125 -21.41796875 46.45703125 -21.52099609 44.09130859 C-21.76269396 39.78339948 -22.46574288 36.14691419 -24.04296875 32.08203125 C-26.31218411 31.94713734 -28.58367545 31.8500913 -30.85546875 31.76953125 C-32.12003906 31.71152344 -33.38460938 31.65351562 -34.6875 31.59375 C-38.10020573 31.74385049 -38.10020573 31.74385049 -39.9609375 34.04296875 C-41.40931778 38.11098269 -41.55697609 41.72978354 -41.54296875 46.01953125 C-41.58550781 47.19805664 -41.58550781 47.19805664 -41.62890625 48.40039062 C-41.64258124 52.48579297 -41.36771662 55.22616106 -38.765625 58.47265625 C-32.24813256 64.71897612 -24.21455424 67.93982008 -16.04296875 71.51953125 C-5.66660783 76.08459691 6.12083412 81.32221104 10.94921875 92.34765625 C11.72636837 94.58288658 12.39273261 96.78423967 12.95703125 99.08203125 C13.12976562 99.77675537 13.3025 100.47147949 13.48046875 101.18725586 C14.10760768 104.99667506 14.11953161 108.76000108 14.125 112.609375 C14.1299926 113.84742638 14.1299926 113.84742638 14.13508606 115.11048889 C14.14013949 116.85791469 14.14249488 118.6053501 14.14233398 120.3527832 C14.14449827 122.97949986 14.16260878 125.60578067 14.18164062 128.23242188 C14.27331764 155.19696437 14.27331764 155.19696437 7.95703125 166.08203125 C7.37695312 167.12810547 7.37695312 167.12810547 6.78515625 168.1953125 C2.32379861 175.16290341 -4.70512381 178.88068243 -12.67895508 180.67529297 C-30.19230517 183.88662289 -51.09522755 185.02723941 -66.3984375 174.4921875 C-72.42029472 169.32855221 -75.8053915 161.81217217 -77.04296875 154.08203125 C-77.26605267 149.29266315 -77.22810947 144.50108695 -77.23046875 139.70703125 C-77.24271484 138.40507813 -77.25496094 137.103125 -77.26757812 135.76171875 C-77.26951172 134.4984375 -77.27144531 133.23515625 -77.2734375 131.93359375 C-77.27754639 130.78713379 -77.28165527 129.64067383 -77.28588867 128.45947266 C-77.04296875 125.08203125 -77.04296875 125.08203125 -75.04296875 118.08203125 C-64.48296875 118.08203125 -53.92296875 118.08203125 -43.04296875 118.08203125 C-42.66796875 127.33203125 -42.66796875 127.33203125 -42.56494141 130.22753906 C-42.52933105 130.98905273 -42.4937207 131.75056641 -42.45703125 132.53515625 C-42.42561035 133.31020508 -42.39418945 134.08525391 -42.36181641 134.88378906 C-42.007152 137.32896391 -41.33909176 138.98497217 -40.04296875 141.08203125 C-37.32641472 142.44030826 -35.13507469 142.21437575 -32.10546875 142.20703125 C-31.04457031 142.20960938 -29.98367188 142.2121875 -28.890625 142.21484375 C-25.96723818 142.20772471 -25.96723818 142.20772471 -23.04296875 141.08203125 C-22.06672136 136.08076386 -21.76068313 131.22275043 -21.66796875 126.14453125 C-21.63058594 125.37173828 -21.59320312 124.59894531 -21.5546875 123.80273438 C-21.47790988 118.75673871 -22.28502124 115.54586089 -25.49658203 111.59838867 C-28.09037657 109.05496305 -30.96176911 107.37425506 -34.16796875 105.70703125 C-35.09802734 105.19462891 -35.09802734 105.19462891 -36.046875 104.671875 C-38.67927052 103.23962539 -41.19524984 102.03127089 -44.04296875 101.08203125 C-44.04296875 100.42203125 -44.04296875 99.76203125 -44.04296875 99.08203125 C-45.36554688 98.911875 -45.36554688 98.911875 -46.71484375 98.73828125 C-56.05405308 96.89674702 -65.06471079 90.3421139 -71.04296875 83.08203125 C-75.71890455 74.11713366 -77.19209565 65.35397416 -77.24609375 55.38671875 C-77.25179382 54.55802277 -77.2574939 53.72932678 -77.2633667 52.8755188 C-77.27278005 51.12568421 -77.27933604 49.37583219 -77.28320312 47.62597656 C-77.29286275 44.98600193 -77.32390174 42.3468221 -77.35546875 39.70703125 C-77.43934787 26.4040227 -76.90084156 13.72368166 -67.515625 3.40234375 C-52.52398277 -10.77798607 -16.89729416 -10.65028426 0 0 Z " fill="#081425" transform="translate(1269.04296875,1182.91796875)"/>
<path d="M0 0 C26.73 0 53.46 0 81 0 C81 12.87 81 25.74 81 39 C67.14 39 53.28 39 39 39 C39 49.23 39 59.46 39 70 C52.86 70 66.72 70 81 70 C81 82.21 81 94.42 81 107 C66.81 107 52.62 107 38 107 C38 118.55 38 130.1 38 142 C52.19 142 66.38 142 81 142 C81 155.2 81 168.4 81 182 C54.27 182 27.54 182 0 182 C0 121.94 0 61.88 0 0 Z " fill="#081525" transform="translate(999,1180)"/>
<path d="M0 0 C26.4 0 52.8 0 80 0 C80 12.87 80 25.74 80 39 C66.14 39 52.28 39 38 39 C38 50.88 38 62.76 38 75 C51.53 75 65.06 75 79 75 C79 87.21 79 99.42 79 112 C65.47 112 51.94 112 38 112 C38 135.1 38 158.2 38 182 C25.46 182 12.92 182 0 182 C0 121.94 0 61.88 0 0 Z " fill="#071425" transform="translate(636,1180)"/>
<path d="M0 0 C31.35 0 62.7 0 95 0 C95 12.87 95 25.74 95 39 C85.76 39 76.52 39 67 39 C67 86.19 67 133.38 67 182 C54.13 182 41.26 182 28 182 C28 134.81 28 87.62 28 39 C18.76 39 9.52 39 0 39 C0 26.13 0 13.26 0 0 Z " fill="#0A1627" transform="translate(779,1180)"/>
<path d="M0 0 C13.2 0 26.4 0 40 0 C40 60.06 40 120.12 40 182 C26.8 182 13.6 182 0 182 C0 121.94 0 61.88 0 0 Z " fill="#0A1728" transform="translate(728,1180)"/>
<path d="M0 0 C4.17215435 2.32958813 7.02445267 4.98090667 8.875 9.4375 C9.93494891 14.76330885 9.43332225 19.13562564 6.75 23.875 C4.20815662 27.37003465 2.11022063 29.18261981 -2.125 30.4375 C-7.38305273 31.05747935 -11.66920526 31.07275589 -16.5625 28.9375 C-21.20057602 24.41254779 -23.31516304 19.86790646 -23.75 13.375 C-23.54801463 8.68605392 -22.13236611 6.12089749 -18.83203125 2.84375 C-12.90720025 -2.03711764 -7.07139265 -3.08376521 0 0 Z " fill="#182433" transform="translate(845.125,1389.5625)"/>
<path d="M0 0 C15 0 15 0 18.9375 2.0625 C21 5 21 5 21.625 8.5 C20.91611118 12.4697774 19.54038119 13.96793213 17 17 C17.37337582 20.22036643 18.78632357 22.46326552 20.5625 25.125 C23 28.78470255 23 28.78470255 23 31 C17.66912345 31.43695709 17.66912345 31.43695709 15 31 C12.97170628 28.59140121 12 27.16955691 12 24 C11.34 24 10.68 24 10 24 C9.67 22.68 9.34 21.36 9 20 C8.34 20 7.68 20 7 20 C7 23.63 7 27.26 7 31 C4.69 31 2.38 31 0 31 C0 20.77 0 10.54 0 0 Z " fill="#051223" transform="translate(1110,1389)"/>
<path d="M0 0 C3.14344435 1.74635797 5.46862726 3.46862726 8 6 C7.8125 8 7.8125 8 7 10 C6.01 10.66 5.02 11.32 4 12 C3.319375 11.319375 2.63875 10.63875 1.9375 9.9375 C-0.91801692 7.65718923 -0.91801692 7.65718923 -4.625 8.0625 C-7.8429675 8.81785996 -7.8429675 8.81785996 -9.9375 10.0625 C-11.68907484 13.25654823 -11.49338823 16.49694356 -11 20 C-10.20426487 22.61760705 -10.20426487 22.61760705 -8 24 C-5.24894801 24.49862817 -2.75105199 24.49862817 0 24 C2.009245 22.66641006 2.009245 22.66641006 3 21 C0.69 21 -1.62 21 -4 21 C-4 19.02 -4 17.04 -4 15 C0.62 15 5.24 15 10 15 C10.66964286 23.83928571 10.66964286 23.83928571 7.75 27.4375 C2.94870295 31.91143589 -0.76657603 32.56162702 -7.234375 32.44921875 C-11.63646985 31.73418922 -14.37034949 29.53431162 -17 26 C-19.7268187 20.51881898 -19.65782002 14.99532169 -19 9 C-15.10636857 1.52422766 -7.90312051 -1.00357086 0 0 Z " fill="#131E2E" transform="translate(891,1388)"/>
<path d="M0 0 C7 0 7 0 9.2578125 2.16015625 C9.87398437 3.11792969 10.49015625 4.07570313 11.125 5.0625 C12.05699219 6.47208984 12.05699219 6.47208984 13.0078125 7.91015625 C13.66523437 8.92980469 14.32265625 9.94945312 15 11 C16.65 13.31 18.3 15.62 20 18 C20.33 12.06 20.66 6.12 21 0 C22.98 0 24.96 0 27 0 C27 10.23 27 20.46 27 31 C20 31 20 31 18.3190918 29.79418945 C17.94953369 29.23948975 17.57997559 28.68479004 17.19921875 28.11328125 C16.56983398 27.1996582 16.56983398 27.1996582 15.92773438 26.26757812 C15.51845703 25.62240234 15.10917969 24.97722656 14.6875 24.3125 C14.04458008 23.37374023 14.04458008 23.37374023 13.38867188 22.41601562 C11.14149685 19.06804036 9.32649868 15.83292159 8 12 C7.34 12 6.68 12 6 12 C6 18.27 6 24.54 6 31 C4.02 31 2.04 31 0 31 C0 20.77 0 10.54 0 0 Z " fill="#0A1627" transform="translate(968,1389)"/>
<path d="M0 0 C2.31 0 4.62 0 7 0 C7 3.96 7 7.92 7 12 C10.63 12 14.26 12 18 12 C18 8.04 18 4.08 18 0 C20.31 0 22.62 0 25 0 C25 10.23 25 20.46 25 31 C22.69 31 20.38 31 18 31 C18 26.71 18 22.42 18 18 C14.37 18 10.74 18 7 18 C7 22.29 7 26.58 7 31 C4.69 31 2.38 31 0 31 C0 20.77 0 10.54 0 0 Z " fill="#0D1828" transform="translate(1028,1389)"/>
<path d="M0 0 C1.4540625 0.0309375 1.4540625 0.0309375 2.9375 0.0625 C6.37778485 7.18706153 9.53096462 14.34603409 12.3125 21.75 C12.57498535 22.44480469 12.8374707 23.13960937 13.10791016 23.85546875 C14.9375 28.80309199 14.9375 28.80309199 14.9375 31.0625 C12.6275 31.0625 10.3175 31.0625 7.9375 31.0625 C7.2775 29.0825 6.6175 27.1025 5.9375 25.0625 C1.9775 25.3925 -1.9825 25.7225 -6.0625 26.0625 C-7.0525 28.5375 -7.0525 28.5375 -8.0625 31.0625 C-10.3725 31.0625 -12.6825 31.0625 -15.0625 31.0625 C-14.47494569 27.74659944 -13.66691065 24.79462688 -12.375 21.6875 C-11.06458309 18.50299419 -9.76277216 15.3169526 -8.5 12.11328125 C-8.23147217 11.43378418 -7.96294434 10.75428711 -7.6862793 10.05419922 C-7.14977554 8.69574523 -6.61475669 7.33670376 -6.08129883 5.97705078 C-3.73855455 0.07629703 -3.73855455 0.07629703 0 0 Z " fill="#172333" transform="translate(934.0625,1388.9375)"/>
<path d="M0 0 C5.94 0 11.88 0 18 0 C18 1.98 18 3.96 18 6 C14.37 6 10.74 6 7 6 C7 7.98 7 9.96 7 12 C10.63 12 14.26 12 18 12 C18 13.98 18 15.96 18 18 C14.37 18 10.74 18 7 18 C7 19.98 7 21.96 7 24 C10.63 24 14.26 24 18 24 C18 26.31 18 28.62 18 31 C12.06 31 6.12 31 0 31 C0 20.77 0 10.54 0 0 Z " fill="#131E2E" transform="translate(1073,1389)"/>
<path d="M0 0 C5.61 0 11.22 0 17 0 C17 1.98 17 3.96 17 6 C13.7 6 10.4 6 7 6 C7 7.98 7 9.96 7 12 C10.63 12 14.26 12 18 12 C18 13.98 18 15.96 18 18 C14.37 18 10.74 18 7 18 C7 19.98 7 21.96 7 24 C10.3 24 13.6 24 17 24 C17 26.31 17 28.62 17 31 C11.39 31 5.78 31 0 31 C0 20.77 0 10.54 0 0 Z " fill="#192333" transform="translate(1153,1389)"/>
<path d="M0 0 C2.9375 1.5 2.9375 1.5 5 3 C3.54643338 6.75504711 3.54643338 6.75504711 1.1875 7.8125 C-1.38764878 8.03322704 -3.50222685 7.62444329 -6 7 C-5.63790024 9.38830276 -5.63790024 9.38830276 -4 12 C-1.73446127 13.48228556 0.57465996 14.69347297 3.00390625 15.88671875 C5 17 5 17 6 19 C6.39447548 23.18144011 6.45035186 25.30946048 4.125 28.875 C1.07322218 31.92677782 -0.66311166 32.17501089 -4.875 32.25 C-5.73867188 32.27578125 -6.60234375 32.3015625 -7.4921875 32.328125 C-10.45024649 31.94108924 -11.79201784 30.95124005 -14 29 C-13.25 26.5625 -13.25 26.5625 -12 24 C-9.9375 23.125 -9.9375 23.125 -8 23 C-7.67 23.33 -7.34 23.66 -7 24 C-5.33382885 24.04063832 -3.66611905 24.042721 -2 24 C-2 23.01 -2 22.02 -2 21 C-4.475 20.01 -4.475 20.01 -7 19 C-7 18.34 -7 17.68 -7 17 C-7.61875 16.87625 -8.2375 16.7525 -8.875 16.625 C-11 16 -11 16 -13 14 C-13.47025629 9.01528338 -13.07908998 5.99141294 -10 2 C-6.27420911 -0.48386059 -4.41288598 -0.3804212 0 0 Z " fill="#121E2E" transform="translate(764,1388)"/>
<path d="M0 0 C2.31 0 4.62 0 7 0 C7 7.92 7 15.84 7 24 C9.97 24 12.94 24 16 24 C16 26.31 16 28.62 16 31 C10.72 31 5.44 31 0 31 C0 20.77 0 10.54 0 0 Z " fill="#0F1B2B" transform="translate(789,1389)"/>
<path d="M0 0 C2.9375 1.375 2.9375 1.375 5 4 C5.7197456 7.46999302 5.69567982 10.52721122 5 14 C2.875 17.125 2.875 17.125 0 19 C-3.68620197 19.69116287 -5.47618001 19.23913521 -8.875 17.6875 C-11.79234049 13.99792232 -11.64753702 11.17612449 -11.4140625 6.57421875 C-11 4 -11 4 -9.4375 1.3125 C-6.01859594 -0.52844834 -3.83109975 -0.53769821 0 0 Z " fill="#E3E5E8" transform="translate(841,1395)"/>
<path d="M0 0 C2.31 0 4.62 0 7 0 C7 10.23 7 20.46 7 31 C4.69 31 2.38 31 0 31 C0 26.71 0 22.42 0 18 C-1.65 18 -3.3 18 -5 18 C-5.33 17.34 -5.66 16.68 -6 16 C-5.34 16 -4.68 16 -4 16 C-4.33 14.68 -4.66 13.36 -5 12 C-3.35 12 -1.7 12 0 12 C0 8.04 0 4.08 0 0 Z " fill="#152131" transform="translate(1046,1389)"/>
<path d="M0 0 C13.81903966 5.8033554 24.1515404 24.39370979 31.25 36.8125 C31.64525879 37.50045654 32.04051758 38.18841309 32.44775391 38.8972168 C33.36673671 40.56226908 34.19307417 42.27785041 35 44 C34.505 44.99 34.505 44.99 34 46 C33.21689453 44.80117188 33.21689453 44.80117188 32.41796875 43.578125 C24.15824601 31.15516634 14.89754307 21.23115937 2.96875 12.27734375 C0.78156523 10.5995428 -1.14556531 9.02000922 -3 7 C-2.01 7 -1.02 7 0 7 C0 4.69 0 2.38 0 0 Z " fill="#DFE1E5" transform="translate(819,882)"/>
<path d="M0 0 C2.625 0.375 2.625 0.375 5 1 C5.02578125 1.83144531 5.0515625 2.66289063 5.078125 3.51953125 C5.13484375 4.60621094 5.1915625 5.69289063 5.25 6.8125 C5.29640625 7.89144531 5.3428125 8.97039062 5.390625 10.08203125 C5.75125535 13.05060629 5.75125535 13.05060629 7.7265625 14.8828125 C10.43522776 16.21387481 12.12927261 16.24582063 15.125 16.0625 C17.7578125 15.91015625 17.7578125 15.91015625 20 16 C22 18 22 18 22 21 C17.20676632 23.81293056 12.40978585 23.62722155 7 23 C3.24801781 21.25800827 1.54677031 19.74725276 -0.875 16.4375 C-2.43629968 11.66686207 -2.626783 6.98170388 -2 2 C-1.34 1.34 -0.68 0.68 0 0 Z " fill="#0F1B2B" transform="translate(825,1397)"/>
<path d="M0 0 C0.66 0 1.32 0 2 0 C1.67 1.32 1.34 2.64 1 4 C2.75032844 3.85816304 4.50025534 3.71136571 6.25 3.5625 C7.71179688 3.44068359 7.71179688 3.44068359 9.203125 3.31640625 C11.56461753 3.04925416 13.71901065 2.64628032 16 2 C16.67057887 3.7902061 17.3363469 5.58221489 18 7.375 C18.556875 8.87160156 18.556875 8.87160156 19.125 10.3984375 C20 13 20 13 20 15 C17.69 15 15.38 15 13 15 C12.34 13.02 11.68 11.04 11 9 C5.06 9.495 5.06 9.495 -1 10 C-1.66 11.65 -2.32 13.3 -3 15 C-5.31 15 -7.62 15 -10 15 C-9.51163302 10.60469719 -8.17023548 8.9781 -5 6 C-3.76487921 3.86690808 -3.76487921 3.86690808 -3 2 C-2.01 2 -1.02 2 0 2 C0 1.34 0 0.68 0 0 Z " fill="#121D2E" transform="translate(929,1405)"/>
<path d="M0 0 C15 0 15 0 18.9375 2.0625 C21 5 21 5 21.6875 8.5 C20.84787849 12.77443679 19.31013553 14.26913819 16 17 C15.67 16.01 15.34 15.02 15 14 C12.36 13.67 9.72 13.34 7 13 C7 10.03 7 7.06 7 4 C7.99 3.67 8.98 3.34 10 3 C10.33 2.34 10.66 1.68 11 1 C7.7 1 4.4 1 1 1 C1 10.9 1 20.8 1 31 C0.67 31 0.34 31 0 31 C0 20.77 0 10.54 0 0 Z " fill="#222D3C" transform="translate(1110,1389)"/>
<path d="M0 0 C3.99241501 1.330805 4.85578904 2.87440521 7.375 6.125 C10.51363704 7.01093998 10.51363704 7.01093998 13.375 7.125 C13.375 9.765 13.375 12.405 13.375 15.125 C13.045 15.125 12.715 15.125 12.375 15.125 C12.375 12.815 12.375 10.505 12.375 8.125 C7.755 8.125 3.135 8.125 -1.625 8.125 C-1.625 10.105 -1.625 12.085 -1.625 14.125 C0.685 14.125 2.995 14.125 5.375 14.125 C4.375 17.125 4.375 17.125 2.375 18.125 C-4.76169065 18.81564748 -4.76169065 18.81564748 -8.125 16.125 C-10.03791815 12.2991637 -10.72864512 9.31211164 -9.625 5.125 C-6.50390461 1.39491039 -4.89475778 0.16878475 0 0 Z " fill="#D9DCDF" transform="translate(888.625,1394.875)"/>
<path d="M0 0 C5.23034063 1.51372211 10.41054084 3.12757145 15.56030273 4.89819336 C21.99219579 7.10098518 28.29992861 8.83477019 35 10 C37.71079403 10.52948496 40.41772389 11.07785191 43.125 11.625 C44.44004392 11.88832189 45.75514319 12.1513676 47.0703125 12.4140625 C48.03710938 12.60742188 49.00390625 12.80078125 50 13 C50 13.33 50 13.66 50 14 C35.98901652 14.65790705 22.94842672 11.82104467 9.4375 8.5 C8.61693115 8.29866455 7.7963623 8.0973291 6.95092773 7.88989258 C1.81190733 6.5824553 -3.06603852 4.94419559 -8 3 C-4.98968256 2.06576355 -4.13349732 1.95550089 -1 3 C-0.67 2.01 -0.34 1.02 0 0 Z " fill="#D9DBDF" transform="translate(858,742)"/>
<path d="M0 0 C4.98085755 3.88749858 8.91867517 8.19375069 13 13 C15.24508882 15.60842272 17.49771663 18.21028999 19.75 20.8125 C20.31726807 21.4710498 20.88453613 22.12959961 21.46899414 22.80810547 C22.28098267 23.74807373 22.28098267 23.74807373 23.109375 24.70703125 C23.59374023 25.2688208 24.07810547 25.83061035 24.57714844 26.40942383 C25.549941 27.49688841 26.5626585 28.54957541 27.60644531 29.5690918 C29.2196678 31.22555589 30.05909712 32.90106281 31 35 C29.02 35.99 27.04 36.98 25 38 C24.59797363 37.37134033 24.19594727 36.74268066 23.78173828 36.0949707 C13.31375568 19.74099516 13.31375568 19.74099516 1.66015625 4.23046875 C0 2 0 2 0 0 Z " fill="#DBDEE1" transform="translate(1318,670)"/>
<path d="M0 0 C0.12375 0.53625 0.2475 1.0725 0.375 1.625 C1.83540741 7.17454817 3.79026418 11.51380439 6.9765625 16.265625 C8 18 8 18 8 20 C2.66912345 20.43695709 2.66912345 20.43695709 0 20 C-2.02829372 17.59140121 -3 16.16955691 -3 13 C-3.66 13 -4.32 13 -5 13 C-5.33 11.68 -5.66 10.36 -6 9 C-6.66 9 -7.32 9 -8 9 C-8 12.63 -8 16.26 -8 20 C-9.98 20 -11.96 20 -14 20 C-14 19.67 -14 19.34 -14 19 C-12.35 19 -10.7 19 -9 19 C-9.04640625 18.24074219 -9.0928125 17.48148438 -9.140625 16.69921875 C-9.17671875 15.70535156 -9.2128125 14.71148438 -9.25 13.6875 C-9.29640625 12.70136719 -9.3428125 11.71523437 -9.390625 10.69921875 C-9 8 -9 8 -6.984375 6.14453125 C-6.32953125 5.76683594 -5.6746875 5.38914062 -5 5 C-5.99 4.01 -6.98 3.02 -8 2 C-5.36 2.33 -2.72 2.66 0 3 C0 2.01 0 1.02 0 0 Z " fill="#192534" transform="translate(1125,1400)"/>
<path d="M0 0 C-9.59683148 3.11681433 -19.11712869 5.91850484 -29 8 C-28.01 8.66 -27.02 9.32 -26 10 C-31.61 10 -37.22 10 -43 10 C-41 8 -41 8 -38 7 C-41.3 6.67 -44.6 6.34 -48 6 C-48 5.67 -48 5.34 -48 5 C-47.20005615 4.92483154 -46.4001123 4.84966309 -45.57592773 4.7722168 C-41.8623122 4.41862821 -38.14960852 4.0565207 -34.4375 3.6875 C-33.77372345 3.62163696 -33.1099469 3.55577393 -32.42605591 3.48791504 C-23.70813015 2.61178954 -15.1734751 1.52008195 -6.65234375 -0.546875 C-4.01276737 -0.99781883 -2.49726178 -0.88631833 0 0 Z " fill="#B1B6BC" transform="translate(695,866)"/>
<path d="M0 0 C1.19257188 3.45333393 0.79739769 5.4609652 -0.36328125 8.88671875 C-0.67330078 9.82580078 -0.98332031 10.76488281 -1.30273438 11.73242188 C-1.63595703 12.70759766 -1.96917969 13.68277344 -2.3125 14.6875 C-4.57858409 21.42217477 -6.58615898 28.03127093 -8 35 C-10.97 35.495 -10.97 35.495 -14 36 C-11.21085589 23.44885149 -5.64705801 11.47789602 0 0 Z " fill="#D2D5DA" transform="translate(566,737)"/>
<path d="M0 0 C0.33 0 0.66 0 1 0 C1.33 3.96 1.66 7.92 2 12 C3.32 11.67 4.64 11.34 6 11 C6 17.27 6 23.54 6 30 C4.02 30 2.04 30 0 30 C0 20.1 0 10.2 0 0 Z " fill="#040F21" transform="translate(968,1390)"/>
<path d="M0 0 C0.928125 0.2784375 0.928125 0.2784375 1.875 0.5625 C4.04160178 1.23686176 4.04160178 1.23686176 6 0 C6.845625 0.639375 7.69125 1.27875 8.5625 1.9375 C11.90728565 4.1966273 14.97396992 4.67791759 19 5 C18.67 6.65 18.34 8.3 18 10 C9.68200837 11.84100418 9.68200837 11.84100418 5.8125 9.90625 C2.87199641 7.50483874 1.2509346 5.76953276 0.0625 2.125 C0.041875 1.42375 0.02125 0.7225 0 0 Z " fill="#0C1829" transform="translate(873,1409)"/>
<path d="M0 0 C-0.969375 0.28875 -1.93875 0.5775 -2.9375 0.875 C-6.10664203 1.64214682 -6.10664203 1.64214682 -7 4 C-5.68 4.33 -4.36 4.66 -3 5 C-6.22603545 6.61301773 -9.74710038 6.12053599 -13.2890625 6.09765625 C-14.51669815 6.09553383 -14.51669815 6.09553383 -15.76913452 6.09336853 C-18.38779325 6.0877629 -21.00636704 6.07520948 -23.625 6.0625 C-25.39843627 6.05748572 -27.17187387 6.05292269 -28.9453125 6.04882812 C-33.29690782 6.03779164 -37.6484395 6.02052325 -42 6 C-41.67 5.34 -41.34 4.68 -41 4 C-38.35131836 3.52929688 -38.35131836 3.52929688 -34.83984375 3.21875 C-33.57076172 3.09886719 -32.30167969 2.97898437 -30.99414062 2.85546875 C-29.64199682 2.73618597 -28.28978228 2.61770255 -26.9375 2.5 C-17.03153483 1.76148536 -17.03153483 1.76148536 -7.31640625 -0.15625 C-4.06306678 -0.98395474 -3.04966965 -0.94027674 0 0 Z " fill="#CDD1D6" transform="translate(1302,835)"/>
<path d="M0 0 C0.66 0.33 1.32 0.66 2 1 C0.62714844 2.33804688 0.62714844 2.33804688 -0.7734375 3.703125 C-1.97422282 4.88514805 -3.17472909 6.06745461 -4.375 7.25 C-4.97828125 7.83652344 -5.5815625 8.42304687 -6.203125 9.02734375 C-7.07324219 9.88779297 -7.07324219 9.88779297 -7.9609375 10.765625 C-8.49509277 11.28930664 -9.02924805 11.81298828 -9.57958984 12.35253906 C-11.10334118 13.96995926 -11.10334118 13.96995926 -12.00244141 16.13964844 C-13 18 -13 18 -16 19 C-16 17.35 -16 15.7 -16 14 C-18.64 15.98 -21.28 17.96 -24 20 C-24.66 19.67 -25.32 19.34 -26 19 C-21.19723872 14.49554688 -16.09873138 10.51279683 -10.75 6.6875 C-10.14784668 6.25518066 -9.54569336 5.82286133 -8.92529297 5.37744141 C-2.85001566 1.07856097 -2.85001566 1.07856097 0 0 Z " fill="#212C3B" transform="translate(630,574)"/>
<path d="M0 0 C4.39948388 3.76948619 6.95531606 8.60980014 9.8125 13.5625 C10.32748047 14.42552734 10.84246094 15.28855469 11.37304688 16.17773438 C11.85451172 17.00724609 12.33597656 17.83675781 12.83203125 18.69140625 C13.27264893 19.44623291 13.7132666 20.20105957 14.16723633 20.97875977 C15 23 15 23 14 26 C12.10364017 23.79211695 10.20789959 21.58370715 8.3125 19.375 C7.78205078 18.75753906 7.25160156 18.14007812 6.70507812 17.50390625 C5.64728205 16.27089242 4.59143981 15.0361996 3.53759766 13.79980469 C2.52793873 12.6179683 1.51215272 11.44133363 0.48974609 10.27050781 C-3 6.22067901 -3 6.22067901 -3 4 C-2.34 3.67 -1.68 3.34 -1 3 C-0.67 2.01 -0.34 1.02 0 0 Z " fill="#1D2837" transform="translate(1332,676)"/>
<path d="M0 0 C5.17628837 6.40144538 9.48109741 13.58459633 13.625 20.6875 C13.97973389 21.28715576 14.33446777 21.88681152 14.69995117 22.50463867 C15.53230481 23.9676335 16.27534844 25.48077435 17 27 C16.67 27.66 16.34 28.32 16 29 C15.47792969 28.20078125 14.95585938 27.4015625 14.41796875 26.578125 C7.87234553 16.74536549 0.3973815 8.31908424 -8 0 C-4.71303767 -0.79953138 -3.28976808 -1.09658936 0 0 Z " fill="#D7D9DD" transform="translate(837,899)"/>
<path d="M0 0 C0.33 0.99 0.66 1.98 1 3 C3.18137797 4.02450239 3.18137797 4.02450239 6 5 C7.670625 5.928125 7.670625 5.928125 9.375 6.875 C15.50367266 10.02215623 22.34630875 11.37123183 29 13 C29 13.33 29 13.66 29 14 C17.93051831 14.67466367 7.64923496 12.48681988 -2 7 C-2 5.33333333 -2 3.66666667 -2 2 C-1.34 2 -0.68 2 0 2 C0 1.34 0 0.68 0 0 Z " fill="#DDDFE3" transform="translate(1066,763)"/>
<path d="M0 0 C0.33 0 0.66 0 1 0 C1.28888803 4.92531035 1.57353842 9.850842 1.85449219 14.77661133 C1.9503711 16.44757477 2.04734957 18.11847554 2.14550781 19.78930664 C2.67795354 28.8653331 3.18282273 37.90329949 3 47 C0.77976074 44.77976074 0.00011037 43.01470899 -1.1875 40.125 C-1.55230469 39.26132812 -1.91710937 38.39765625 -2.29296875 37.5078125 C-3.05154568 34.81716947 -2.9987309 33.57476291 -2 31 C-1.67 30.67 -1.34 30.34 -1 30 C-0.84126045 27.78312006 -0.74866163 25.56144702 -0.68359375 23.33984375 C-0.66281265 22.67537735 -0.64203156 22.01091095 -0.62062073 21.3263092 C-0.55506342 19.19681457 -0.49621215 17.06719332 -0.4375 14.9375 C-0.39432061 13.49673153 -0.35070651 12.05597601 -0.30664062 10.61523438 C-0.19937607 7.0769596 -0.09812629 3.53854131 0 0 Z " fill="#141F2E" transform="translate(625,637)"/>
<path d="M0 0 C0.66 0.33 1.32 0.66 2 1 C2 1.66 2 2.32 2 3 C3.32 3 4.64 3 6 3 C7.4606285 5.64738916 8 6.89448334 8 10 C6.02 10 4.04 10 2 10 C2 9.01 2 8.02 2 7 C1.34 7 0.68 7 0 7 C0 7.66 0 8.32 0 9 C-0.639375 9.2475 -1.27875 9.495 -1.9375 9.75 C-4.18741541 10.81562433 -4.18741541 10.81562433 -4.75 13.125 C-4.8325 13.74375 -4.915 14.3625 -5 15 C-5.66 15 -6.32 15 -7 15 C-6.47799942 9.77999416 -4.79095098 5.41286212 -2 1 C-1.34 0.67 -0.68 0.34 0 0 Z " fill="#1C2837" transform="translate(929,1398)"/>
<path d="M0 0 C-2.55558711 2.55558711 -4.99655959 3.29083985 -8.375 4.5625 C-9.51710938 4.99691406 -10.65921875 5.43132813 -11.8359375 5.87890625 C-14.2288362 6.72676048 -16.52600348 7.45767071 -19 8 C-19.33 7.34 -19.66 6.68 -20 6 C-19.34 4.68 -18.68 3.36 -18 2 C-22.62 2 -27.24 2 -32 2 C-32 1.67 -32 1.34 -32 1 C-21.32089373 0.36850058 -10.7016389 -0.17291697 0 0 Z " fill="#192433" transform="translate(1297,840)"/>
<path d="M0 0 C0.33 0 0.66 0 1 0 C1 8.25 1 16.5 1 25 C0.67 25 0.34 25 0 25 C-0.33 22.36 -0.66 19.72 -1 17 C-1.99 20.96 -2.98 24.92 -4 29 C-4.66 29 -5.32 29 -6 29 C-6.66 23.72 -7.32 18.44 -8 13 C-5.70366176 16.44450737 -5.45983515 18.93812283 -5 23 C-4.88406494 22.3387915 -4.76812988 21.67758301 -4.64868164 20.99633789 C-4.12404937 18.0176536 -3.59335801 15.04008076 -3.0625 12.0625 C-2.88009766 11.02158203 -2.69769531 9.98066406 -2.50976562 8.90820312 C-2.33251953 7.91884766 -2.15527344 6.92949219 -1.97265625 5.91015625 C-1.72914429 4.53549194 -1.72914429 4.53549194 -1.48071289 3.13305664 C-1 1 -1 1 0 0 Z " fill="#BDC1C7" transform="translate(1266,643)"/>
<path d="M0 0 C0.66 0 1.32 0 2 0 C3.38442 1.96498322 4.71203834 3.97048465 6 6 C6.98866506 7.34175973 7.9838154 8.67896002 9 10 C7.60878255 12.7824349 5.69835788 13.55210065 3 15 C2.34 15 1.68 15 1 15 C0.67 16.32 0.34 17.64 0 19 C0 12.73 0 6.46 0 0 Z " fill="#CFD2D6" transform="translate(974,1401)"/>
<path d="M0 0 C3.73575557 4.59785301 3.73575557 4.59785301 5.25 6.90234375 C8.72463497 12.04519835 12.38127322 14.81893305 17.828125 17.7734375 C20 19 20 19 22 21 C14.00769006 20.20076901 7.72488194 16.45860836 2 11 C0.125 8.1875 0.125 8.1875 -1 6 C-0.67 5.67 -0.34 5.34 0 5 C0.04063832 3.33382885 0.042721 1.66611905 0 0 Z " fill="#D8DBDF" transform="translate(661,763)"/>
<path d="M0 0 C8.91 0 17.82 0 27 0 C27 0.33 27 0.66 27 1 C26.30132813 1.02578125 25.60265625 1.0515625 24.8828125 1.078125 C23.97273437 1.13484375 23.06265625 1.1915625 22.125 1.25 C21.22007812 1.29640625 20.31515625 1.3428125 19.3828125 1.390625 C16.82889456 1.75611148 16.82889456 1.75611148 15.6796875 4.046875 C15.34324219 5.01367188 15.34324219 5.01367188 15 6 C9.22621075 5.5188509 5.04140164 3.81532819 0 1 C0 0.67 0 0.34 0 0 Z " fill="#222C3B" transform="translate(857,740)"/>
<path d="M0 0 C1.98 0.99 1.98 0.99 4 2 C4.66 1.34 5.32 0.68 6 0 C6 1.98 6 3.96 6 6 C9.3 6 12.6 6 16 6 C16 6.66 16 7.32 16 8 C15.30132813 8.06058594 14.60265625 8.12117188 13.8828125 8.18359375 C12.51769531 8.30927734 12.51769531 8.30927734 11.125 8.4375 C10.22007813 8.51871094 9.31515625 8.59992188 8.3828125 8.68359375 C5.98889139 8.86989285 5.98889139 8.86989285 4 10 C4.33 10.66 4.66 11.32 5 12 C3.35 12 1.7 12 0 12 C0 8.04 0 4.08 0 0 Z " fill="#1B2737" transform="translate(1154,1407)"/>
<path d="M0 0 C3.29698152 3.29698152 4.48219129 7.71440743 6.1875 12 C6.56841797 12.928125 6.94933594 13.85625 7.34179688 14.8125 C7.69693359 15.699375 8.05207031 16.58625 8.41796875 17.5 C8.74563232 18.3146875 9.0732959 19.129375 9.41088867 19.96875 C10 22 10 22 9 24 C8.34 23.67 7.68 23.34 7 23 C7 24.65 7 26.3 7 28 C6.67 28 6.34 28 6 28 C0 7.78640777 0 7.78640777 0 0 Z " fill="#C3C7CC" transform="translate(616,657)"/>
<path d="M0 0 C6.12913259 -0.4226988 9.04691633 -0.00963916 14 4 C14.66 4.66 15.32 5.32 16 6 C15.8125 8 15.8125 8 15 10 C14.01 10.66 13.02 11.32 12 12 C11.2575 11.38125 10.515 10.7625 9.75 10.125 C7.51198812 8.39562719 5.56260013 7.13893339 3 6 C4.32 5.34 5.64 4.68 7 4 C6.67 3.34 6.34 2.68 6 2 C2.97065509 1.34227572 2.97065509 1.34227572 0 1 C0 0.67 0 0.34 0 0 Z " fill="#202B3A" transform="translate(883,1388)"/>
<path d="M0 0 C4.62 0 9.24 0 14 0 C13.01 0.66 12.02 1.32 11 2 C10.67 2.99 10.34 3.98 10 5 C8.68 5 7.36 5 6 5 C5.67 5.99 5.34 6.98 5 8 C2.69 7.34 0.38 6.68 -2 6 C-1.34 4.02 -0.68 2.04 0 0 Z " fill="#0C1829" transform="translate(874,741)"/>
<path d="M0 0 C5.57830269 0.48067007 10.61704479 1.39455722 16 3 C19.32363441 3.71849156 22.65891723 4.36808495 26 5 C26 5.33 26 5.66 26 6 C15.61993429 6.48741178 6.13814418 5.03977033 -4 3 C-2.68 2.67 -1.36 2.34 0 2 C0 1.34 0 0.68 0 0 Z " fill="#B1B6BD" transform="translate(882,750)"/>
<path d="M0 0 C3.8480528 3.8480528 4.7964731 6.88332024 5.3125 12.25 C5.1578125 13.61125 5.1578125 13.61125 5 15 C4.01 15.66 3.02 16.32 2 17 C1.34 17.99 0.68 18.98 0 20 C0 13.4 0 6.8 0 0 Z " fill="#031020" transform="translate(825,1034)"/>
<path d="M0 0 C4.55015893 1.51671964 6.50057264 5.16891053 9 9 C8.01 9.495 8.01 9.495 7 10 C6.67 9.34 6.34 8.68 6 8 C4.68 9.32 3.36 10.64 2 12 C0.35 9.69 -1.3 7.38 -3 5 C-2.67 4.34 -2.34 3.68 -2 3 C-1.34 3 -0.68 3 0 3 C0 2.01 0 1.02 0 0 Z " fill="#152030" transform="translate(979,1398)"/>
<path d="M0 0 C0.66 0 1.32 0 2 0 C2.40166661 3.28446136 2.68533273 5.90566879 0.875 8.79638672 C-0.68219355 10.59334347 -2.30254899 12.27254524 -4 13.9375 C-4.57234375 14.52595703 -5.1446875 15.11441406 -5.734375 15.72070312 C-7.14084112 17.1623309 -8.56840784 18.58332026 -10 20 C-10 15.37859726 -7.44756419 12.21223244 -5.125 8.3125 C-4.66480469 7.51521484 -4.20460938 6.71792969 -3.73046875 5.89648438 C-3.28574219 5.14302734 -2.84101562 4.38957031 -2.3828125 3.61328125 C-1.97434082 2.92016846 -1.56586914 2.22705566 -1.14501953 1.51293945 C-0.76716309 1.01366943 -0.38930664 0.51439941 0 0 Z " fill="#DBDDE1" transform="translate(1080,1009)"/>
<path d="M0 0 C5.28 0 10.56 0 16 0 C16 1.32 16 2.64 16 4 C13.89651926 4.19504458 11.79217415 4.38078496 9.6875 4.5625 C8.51574219 4.66691406 7.34398437 4.77132813 6.13671875 4.87890625 C3 5 3 5 0 4 C0 2.68 0 1.36 0 0 Z " fill="#031122" transform="translate(1154,1390)"/>
<path d="M0 0 C3.3 0 6.6 0 10 0 C10 1.65 10 3.3 10 5 C6.37 5 2.74 5 -1 5 C-1 6.65 -1 8.3 -1 10 C-2.1875 8.375 -2.1875 8.375 -3 6 C-1.625 2.75 -1.625 2.75 0 0 Z " fill="#020F20" transform="translate(1160,1402)"/>
<path d="M0 0 C2.20029834 2.20029834 2.68582609 3.5781256 3.625 6.5 C3.88539063 7.2940625 4.14578125 8.088125 4.4140625 8.90625 C5 11 5 11 5 13 C2.69 13 0.38 13 -2 13 C-2.66 11.02 -3.32 9.04 -4 7 C-3.525625 6.5875 -3.05125 6.175 -2.5625 5.75 C-0.83733482 3.817815 -0.43415125 2.51807725 0 0 Z " fill="#283341" transform="translate(944,1407)"/>
<path d="M0 0 C0.66 0 1.32 0 2 0 C2 1.98 2 3.96 2 6 C0.35 6.66 -1.3 7.32 -3 8 C-2.67 9.65 -2.34 11.3 -2 13 C-7.75 11.25 -7.75 11.25 -10 9 C-10 7.68 -10 6.36 -10 5 C-7.36 5 -4.72 5 -2 5 C-0.58614089 2.61837991 -0.58614089 2.61837991 0 0 Z " fill="#E0E2E6" transform="translate(768,1390)"/>
<path d="M0 0 C1.53202706 0.25195908 3.05257128 0.57596777 4.5625 0.9375 C5.38878906 1.13214844 6.21507812 1.32679687 7.06640625 1.52734375 C8.02353516 1.76130859 8.02353516 1.76130859 9 2 C9 2.66 9 3.32 9 4 C7.68 4 6.36 4 5 4 C5 5.32 5 6.64 5 8 C3.25 8.6875 3.25 8.6875 1 9 C-1.25 7.5625 -1.25 7.5625 -3 6 C-1.125 1.125 -1.125 1.125 0 0 Z " fill="#1F2A38" transform="translate(753,1411)"/>
<path d="M0 0 C0.66 0.33 1.32 0.66 2 1 C1.67 1.66 1.34 2.32 1 3 C1.66 3.33 2.32 3.66 3 4 C0.40559005 6.17857341 -2.20203655 8.34070005 -4.8125 10.5 C-5.55048828 11.12003906 -6.28847656 11.74007812 -7.04882812 12.37890625 C-7.76103516 12.96542969 -8.47324219 13.55195312 -9.20703125 14.15625 C-9.8616333 14.70087891 -10.51623535 15.24550781 -11.19067383 15.80664062 C-13 17 -13 17 -16 17 C-15.0615625 16.08476563 -14.123125 15.16953125 -13.15625 14.2265625 C-11.93723959 13.02630609 -10.71850371 11.82577081 -9.5 10.625 C-8.87996094 10.02171875 -8.25992188 9.4184375 -7.62109375 8.796875 C-6.74130859 7.92675781 -6.74130859 7.92675781 -5.84375 7.0390625 C-5.29912109 6.50490723 -4.75449219 5.97075195 -4.19335938 5.42041016 C-2.78558001 4.05397977 -2.78558001 4.05397977 -3 2 C-2.01 1.34 -1.02 0.68 0 0 Z " fill="#D3D7DA" transform="translate(634,571)"/>
<path d="M0 0 C3.9377954 7.03666916 5.55871404 15.99176547 5 24 C2.76872275 20.65308412 1.61467238 17.28388372 0.375 13.5 C0.03082031 12.48486328 0.03082031 12.48486328 -0.3203125 11.44921875 C-1.29296917 8.51387986 -2 6.11291919 -2 3 C-1.34 3 -0.68 3 0 3 C0 2.01 0 1.02 0 0 Z " fill="#B2B8BF" transform="translate(830,1034)"/>
<path d="M0 0 C0.99 0.33 1.98 0.66 3 1 C2.67 1.99 2.34 2.98 2 4 C2.33 4.99 2.66 5.98 3 7 C1.625 8.5 1.625 8.5 0 10 C-0.66 10 -1.32 10 -2 10 C-2 8.35 -2 6.7 -2 5 C-4.64 6.98 -7.28 8.96 -10 11 C-10.66 10.67 -11.32 10.34 -12 10 C-10.75160501 8.894019 -9.50120766 7.79029799 -8.25 6.6875 C-7.55390625 6.07261719 -6.8578125 5.45773437 -6.140625 4.82421875 C-5.43421875 4.22222656 -4.7278125 3.62023437 -4 3 C-3.31421875 2.40832031 -2.6284375 1.81664062 -1.921875 1.20703125 C-0.97054687 0.60955078 -0.97054687 0.60955078 0 0 Z " fill="#242F3E" transform="translate(616,583)"/>
<path d="M0 0 C0.66 0 1.32 0 2 0 C2 6.27 2 12.54 2 19 C-3 14 -3 14 -4 11 C-3.34 10.67 -2.68 10.34 -2 10 C-1.34 10.33 -0.68 10.66 0 11 C0 7.37 0 3.74 0 0 Z " fill="#C1C5CB" transform="translate(987,1389)"/>
<path d="M0 0 C7.26236302 1.30960645 13.3830748 3.75956186 20 7 C19.6875 8.9375 19.6875 8.9375 19 11 C18.01 11.33 17.02 11.66 16 12 C15.9175 11.38125 15.835 10.7625 15.75 10.125 C15.21778791 7.88117665 15.21778791 7.88117665 13.3125 7.03125 C12.549375 6.6909375 11.78625 6.350625 11 6 C10.07703125 5.57460938 9.1540625 5.14921875 8.203125 4.7109375 C7.22859375 4.27007813 6.2540625 3.82921875 5.25 3.375 C4.26515625 2.92898438 3.2803125 2.48296875 2.265625 2.0234375 C1.51796875 1.68570313 0.7703125 1.34796875 0 1 C0 0.67 0 0.34 0 0 Z " fill="#BEC3C9" transform="translate(995,716)"/>
<path d="M0 0 C3.226345 3.80247803 5.77535219 7.55070439 8 12 C7.67 12.99 7.34 13.98 7 15 C3.37 10.71 -0.26 6.42 -4 2 C-2.68 1.34 -1.36 0.68 0 0 Z " fill="#25303E" transform="translate(1339,687)"/>
<path d="M0 0 C0.90105469 0.00902344 1.80210938 0.01804687 2.73046875 0.02734375 C3.41753906 0.03894531 4.10460938 0.05054688 4.8125 0.0625 C4.8125 1.3825 4.8125 2.7025 4.8125 4.0625 C3.02156809 4.14336147 1.22960372 4.20162702 -0.5625 4.25 C-2.05910156 4.30220703 -2.05910156 4.30220703 -3.5859375 4.35546875 C-4.44445313 4.25878906 -5.30296875 4.16210938 -6.1875 4.0625 C-6.8475 3.0725 -7.5075 2.0825 -8.1875 1.0625 C-5.17259443 0.05753148 -3.14568308 -0.04085303 0 0 Z " fill="#041122" transform="translate(1165.1875,1414.9375)"/>
<path d="M0 0 C0.66 0 1.32 0 2 0 C2 0.66 2 1.32 2 2 C3.65 2.33 5.3 2.66 7 3 C7.5625 4.9375 7.5625 4.9375 8 7 C7 8 7 8 4.6875 8.25 C1.55923162 7.95899829 0.31322267 7.05619793 -2 5 C-1.34 5 -0.68 5 0 5 C0 3.35 0 1.7 0 0 Z " fill="#D9DDE0" transform="translate(755,1405)"/>
<path d="M0 0 C1.00693162 3.12179408 0.97289724 4.98969669 0.00390625 8.109375 C-0.22490234 8.86347656 -0.45371094 9.61757813 -0.68945312 10.39453125 C-0.93630859 11.17183594 -1.18316406 11.94914063 -1.4375 12.75 C-1.68048828 13.54277344 -1.92347656 14.33554687 -2.17382812 15.15234375 C-2.77354195 17.10435346 -3.38558121 19.05256883 -4 21 C-5.56640625 19.265625 -5.56640625 19.265625 -7 17 C-6.77734375 14.921875 -6.77734375 14.921875 -5.9375 12.75 C-5.64101563 11.97269531 -5.34453125 11.19539062 -5.0390625 10.39453125 C-3.49895154 6.84532817 -1.80473022 3.42276421 0 0 Z " fill="#808792" transform="translate(566,737)"/>
<path d="M0 0 C5.87457753 4.58503612 10.85769882 9.78654823 15 16 C14.01 16.66 13.02 17.32 12 18 C11.46890625 17.26394531 10.9378125 16.52789063 10.390625 15.76953125 C9.68421875 14.79371094 8.9778125 13.81789063 8.25 12.8125 C7.55390625 11.84957031 6.8578125 10.88664063 6.140625 9.89453125 C4.7231914 7.97789202 3.25401067 6.09838186 1.734375 4.26171875 C0 2 0 2 0 0 Z " fill="#B8BEC5" transform="translate(1318,670)"/>
<path d="M0 0 C-0.969375 0.28875 -1.93875 0.5775 -2.9375 0.875 C-6.10664203 1.64214682 -6.10664203 1.64214682 -7 4 C-5.68 4.33 -4.36 4.66 -3 5 C-5.94386623 6.47193312 -8.37390036 5.84936173 -11.625 5.5625 C-12.81351563 5.46066406 -14.00203125 5.35882812 -15.2265625 5.25390625 C-16.14179687 5.17011719 -17.05703125 5.08632813 -18 5 C-18 4.67 -18 4.34 -18 4 C-15.69 4 -13.38 4 -11 4 C-11.33 3.01 -11.66 2.02 -12 1 C-3.96428571 -1.27678571 -3.96428571 -1.27678571 0 0 Z " fill="#C2C5CA" transform="translate(1302,835)"/>
<path d="M0 0 C2 1 4 2 6 3 C6 3.99 6 4.98 6 6 C5.34 6.66 4.68 7.32 4 8 C3.97691403 10.22128555 3.97691403 10.22128555 4.375 12.625 C4.48585938 13.44226563 4.59671875 14.25953125 4.7109375 15.1015625 C4.80632813 15.72804688 4.90171875 16.35453125 5 17 C1.21037688 13.21037688 0.08793821 7.67082592 -0.1875 2.4375 C-0.125625 1.633125 -0.06375 0.82875 0 0 Z " fill="#DDE0E3" transform="translate(623,680)"/>
<path d="M0 0 C0.33 1.32 0.66 2.64 1 4 C0.05125 4.598125 -0.8975 5.19625 -1.875 5.8125 C-5.13964197 7.81562526 -5.13964197 7.81562526 -7 11 C-8.32 10.34 -9.64 9.68 -11 9 C-9.54405245 7.68485396 -8.08516421 6.37296283 -6.625 5.0625 C-5.81289063 4.33160156 -5.00078125 3.60070312 -4.1640625 2.84765625 C-2 1 -2 1 0 0 Z " fill="#111D2D" transform="translate(631,579)"/>
<path d="M0 0 C0.66 0 1.32 0 2 0 C1.25 5.75 1.25 5.75 -1 8 C-3.475 7.01 -3.475 7.01 -6 6 C-6 5.01 -6 4.02 -6 3 C-6.66 2.67 -7.32 2.34 -8 2 C-6.865625 1.855625 -5.73125 1.71125 -4.5625 1.5625 C-1.19222799 1.38828522 -1.19222799 1.38828522 0 0 Z " fill="#051122" transform="translate(942,1407)"/>
<path d="M0 0 C3.63 0 7.26 0 11 0 C11 0.33 11 0.66 11 1 C9.02 1 7.04 1 5 1 C5 1.99 5 2.98 5 4 C7.97 4.495 7.97 4.495 11 5 C11 5.33 11 5.66 11 6 C7.37 6 3.74 6 0 6 C0 4.02 0 2.04 0 0 Z " fill="#D3D6DA" transform="translate(1080,1395)"/>
<path d="M0 0 C1.66611905 -0.042721 3.33382885 -0.04063832 5 0 C6 1 6 1 6.125 3.5 C6 6 6 6 5 7 C3.33382885 7.04063832 1.66611905 7.042721 0 7 C0 4.69 0 2.38 0 0 Z " fill="#DADDE1" transform="translate(1117,1395)"/>
<path d="M0 0 C-0.33 0.99 -0.66 1.98 -1 3 C-1.66 3 -2.32 3 -3 3 C-3.268125 3.639375 -3.53625 4.27875 -3.8125 4.9375 C-5 7 -5 7 -8 8 C-8.33 10.97 -8.66 13.94 -9 17 C-9.33 17 -9.66 17 -10 17 C-10.90389917 8.68077983 -10.90389917 8.68077983 -8.8046875 4.77734375 C-4.90041068 0 -4.90041068 0 0 0 Z " fill="#343E4C" transform="translate(832,1391)"/>
<path d="M0 0 C3.24741424 2.78496601 5.16089095 6.39536751 7.25 10.0625 C7.62640625 10.69994141 8.0028125 11.33738281 8.390625 11.99414062 C9.32643643 13.6266499 10.17105723 15.31071511 11 17 C10.67 17.66 10.34 18.32 10 19 C9.36191406 18.07316406 8.72382812 17.14632812 8.06640625 16.19140625 C7.23182554 14.98173309 6.39718714 13.77209973 5.5625 12.5625 C4.93118164 11.64500977 4.93118164 11.64500977 4.28710938 10.70898438 C2.31239178 7.71897291 2.31239178 7.71897291 0 5 C-0.04063832 3.33382885 -0.042721 1.66611905 0 0 Z " fill="#A3A9B1" transform="translate(843,909)"/>
<path d="M0 0 C2.29633824 3.44450737 2.54016485 5.93812283 3 10 C3.66 6.7 4.32 3.4 5 0 C5.33 0 5.66 0 6 0 C6.20674944 5.78898419 5.59162079 10.42932723 4 16 C3.34 16 2.68 16 2 16 C1.34 10.72 0.68 5.44 0 0 Z " fill="#808690" transform="translate(1258,656)"/>
<path d="M0 0 C0.99 0.33 1.98 0.66 3 1 C3 9.58 3 18.16 3 27 C2.67 27 2.34 27 2 27 C1.67 20.4 1.34 13.8 1 7 C0.67 7 0.34 7 0 7 C0 4.69 0 2.38 0 0 Z " fill="#333C4A" transform="translate(1265,637)"/>
<path d="M0 0 C5.02254631 -0.2954439 7.89542386 0.01485372 12 3 C10.5511811 6.74278215 10.5511811 6.74278215 8.125 7.875 C5.52613603 8.02787435 4.1980747 7.33454536 2 6 C3.65 5.67 5.3 5.34 7 5 C7 4.34 7 3.68 7 3 C4.69 2.34 2.38 1.68 0 1 C0 0.67 0 0.34 0 0 Z " fill="#313947" transform="translate(757,1388)"/>
<path d="M0 0 C0.99 0.495 0.99 0.495 2 1 C2.103125 1.61875 2.20625 2.2375 2.3125 2.875 C3.3053936 5.94394387 5.22209562 6.57543365 8 8 C7.42655063 10.86724686 7.1385485 11.8614515 5 14 C4 12 3 10 2 8 C1.608125 7.29875 1.21625 6.5975 0.8125 5.875 C0 4 0 4 0 0 Z " fill="#353F4D" transform="translate(614,650)"/>
<path d="M0 0 C2 1 2 1 3 3 C2.72057545 4.67654729 2.39171753 6.34608154 2 8 C-0.31 7.67 -2.62 7.34 -5 7 C-2.25 1.125 -2.25 1.125 0 0 Z " fill="#E3E5E7" transform="translate(901,1393)"/>
<path d="M0 0 C0.9075 0.185625 1.815 0.37125 2.75 0.5625 C5.68314324 0.95734621 7.2644657 0.94691572 10 0 C10.1875 2.375 10.1875 2.375 10 5 C9.01 5.66 8.02 6.32 7 7 C5.83040013 6.02433888 4.66438823 5.044375 3.5 4.0625 C2.8503125 3.51722656 2.200625 2.97195313 1.53125 2.41015625 C1.0259375 1.94480469 0.520625 1.47945312 0 1 C0 0.67 0 0.34 0 0 Z " fill="#172332" transform="translate(740,1057)"/>
<path d="M0 0 C-2.43015556 1.22553971 -4.86719091 2.43041374 -7.3125 3.625 C-8.34793945 4.1509375 -8.34793945 4.1509375 -9.40429688 4.6875 C-11.42578125 5.6640625 -11.42578125 5.6640625 -15 7 C-15.99 6.34 -16.98 5.68 -18 5 C-15.75564555 3.96483652 -13.50593133 2.94685023 -11.25 1.9375 C-10.29867188 1.49567383 -10.29867188 1.49567383 -9.328125 1.04492188 C-3.48702331 -1.54098252 -3.48702331 -1.54098252 0 0 Z " fill="#969DA6" transform="translate(1165,853)"/>
<path d="M0 0 C0.33 0 0.66 0 1 0 C1.75166913 7.69118596 2.13690844 15.27227893 2 23 C-0.46278801 20.53721199 -0.99771255 18.29323018 -2 15 C-1.34 15 -0.68 15 0 15 C0 10.05 0 5.1 0 0 Z " fill="#505763" transform="translate(626,661)"/>
<path d="M0 0 C0.99 0 1.98 0 3 0 C2.21085905 6.78661213 0.58725189 13.36149367 -1 20 C-2.27101882 16.22488441 -1.92892657 12.80961699 -1.625 8.875 C-1.53476563 7.63492188 -1.44453125 6.39484375 -1.3515625 5.1171875 C-1 2 -1 2 0 0 Z " fill="#818893" transform="translate(1183,574)"/>
<path d="M0 0 C2.91227269 3.28804981 4.49701212 5.59885603 5 10 C3.0625 10.5625 3.0625 10.5625 1 11 C0 10 0 10 -0.09765625 7.71484375 C-0.08605469 6.79832031 -0.07445312 5.88179687 -0.0625 4.9375 C-0.05347656 4.01839844 -0.04445313 3.09929687 -0.03515625 2.15234375 C-0.02355469 1.44207031 -0.01195312 0.73179688 0 0 Z " fill="#D9DCDF" transform="translate(920,1265)"/>
<path d="M0 0 C0.33 0 0.66 0 1 0 C1 5.94 1 11.88 1 18 C0.01 17.34 -0.98 16.68 -2 16 C-2.36328125 13.57421875 -2.36328125 13.57421875 -2.3125 10.6875 C-2.30863281 9.74261719 -2.30476562 8.79773438 -2.30078125 7.82421875 C-1.98847858 4.89181838 -1.22100779 2.67065051 0 0 Z " fill="#606873" transform="translate(798,925)"/>
<path d="M0 0 C0 0.66 0 1.32 0 2 C-0.99 2.66 -1.98 3.32 -3 4 C-4.03647024 5.30518475 -5.04422943 6.63461347 -6 8 C-7.65 7.67 -9.3 7.34 -11 7 C-11 6.34 -11 5.68 -11 5 C-9.54462432 4.16151196 -8.08559627 3.32936066 -6.625 2.5 C-5.81289062 2.0359375 -5.00078125 1.571875 -4.1640625 1.09375 C-2 0 -2 0 0 0 Z " fill="#2C3745" transform="translate(1156,857)"/>
<path d="M0 0 C-2.475 1.485 -2.475 1.485 -5 3 C-1.7 3.33 1.6 3.66 5 4 C5 4.33 5 4.66 5 5 C0.71 5 -3.58 5 -8 5 C-8 4.01 -8 3.02 -8 2 C-8.99 1.67 -9.98 1.34 -11 1 C-9.5437328 0.63743142 -8.08488815 0.28520207 -6.625 -0.0625 C-5.40683594 -0.35833984 -5.40683594 -0.35833984 -4.1640625 -0.66015625 C-2 -1 -2 -1 0 0 Z " fill="#3E4753" transform="translate(966,510)"/>
<path d="M0 0 C2.00720923 0.28674418 4.0085944 0.61866701 6 1 C6 2.32 6 3.64 6 5 C3.69 5 1.38 5 -1 5 C-1 1 -1 1 0 0 Z " fill="#061324" transform="translate(758,1401)"/>
<path d="M0 0 C1.45880109 0.14107747 2.91703551 0.28802415 4.375 0.4375 C5.59316406 0.55931641 5.59316406 0.55931641 6.8359375 0.68359375 C9 1 9 1 11 2 C11 2.66 11 3.32 11 4 C8.36 4 5.72 4 3 4 C3 3.34 3 2.68 3 2 C2.01 2 1.02 2 0 2 C0 1.34 0 0.68 0 0 Z " fill="#E1E3E6" transform="translate(871,748)"/>
<path d="M0 0 C0.33 3.3 0.66 6.6 1 10 C0.01 10.495 0.01 10.495 -1 11 C-4 6.375 -4 6.375 -4 3 C-1.44444444 0 -1.44444444 0 0 0 Z " fill="#E4E7EA" transform="translate(1348,704)"/>
<path d="M0 0 C0.66 0 1.32 0 2 0 C3.4606285 2.64738916 4 3.89448334 4 7 C2.02 7 0.04 7 -2 7 C-1.125 2.25 -1.125 2.25 0 0 Z " fill="#CCCFD5" transform="translate(933,1401)"/>
<path d="M0 0 C3.76547669 3.76547669 3.91348469 5.90173585 5 11 C3.35 10.67 1.7 10.34 0 10 C0 6.7 0 3.4 0 0 Z " fill="#192432" transform="translate(825,1034)"/>
<path d="M0 0 C0 0.33 0 0.66 0 1 C-6.69675136 2.03026944 -13.2314676 2.10152799 -20 2 C-20 1.67 -20 1.34 -20 1 C-13.02420757 -0.7958955 -7.11778518 -1.12067256 0 0 Z " fill="#333B49" transform="translate(681,873)"/>
<path d="M0 0 C0.99 1.485 0.99 1.485 2 3 C2.33 2.01 2.66 1.02 3 0 C3.66 0 4.32 0 5 0 C5.625 2.875 5.625 2.875 6 6 C5.34 6.66 4.68 7.32 4 8 C3.01 8 2.02 8 1 8 C0.67 5.36 0.34 2.72 0 0 Z " fill="#535C67" transform="translate(1043,529)"/>
<path d="M0 0 C4.49797113 1.68673918 8.72886302 3.81673892 13 6 C10.26980214 7.06528748 9.20701188 7.07998186 6.421875 6.00390625 C5.54015625 5.52824219 4.6584375 5.05257812 3.75 4.5625 C2.85796875 4.08941406 1.9659375 3.61632812 1.046875 3.12890625 C0.37140625 2.75636719 -0.3040625 2.38382813 -1 2 C-0.67 1.34 -0.34 0.68 0 0 Z " fill="#A4ABB3" transform="translate(670,777)"/>
<path d="M0 0 C0.99 0.33 1.98 0.66 3 1 C2.67 1.66 2.34 2.32 2 3 C1.34 3 0.68 3 0 3 C0.33 3.99 0.66 4.98 1 6 C-1.375 6.625 -1.375 6.625 -4 7 C-4.66 6.34 -5.32 5.68 -6 5 C-5.34 4.01 -4.68 3.02 -4 2 C-2.68 2 -1.36 2 0 2 C0 1.34 0 0.68 0 0 Z " fill="#031123" transform="translate(762,1413)"/>
<path d="M0 0 C0.66 0 1.32 0 2 0 C2.33 1.32 2.66 2.64 3 4 C3.66 4 4.32 4 5 4 C5.33 4.99 5.66 5.98 6 7 C5.01 7.495 5.01 7.495 4 8 C4 7.34 4 6.68 4 6 C3.01 6 2.02 6 1 6 C1 7.65 1 9.3 1 11 C0.67 11 0.34 11 0 11 C0 7.37 0 3.74 0 0 Z " fill="#C2C6CD" transform="translate(1117,1409)"/>
<path d="M0 0 C2.63636364 5.27272727 2.63636364 5.27272727 2 9 C0.35 10.65 -1.3 12.3 -3 14 C-2.01 9.38 -1.02 4.76 0 0 Z " fill="#222C3A" transform="translate(1130,915)"/>
<path d="M0 0 C0.99 0 1.98 0 3 0 C3.66 2.31 4.32 4.62 5 7 C4.01 6.67 3.02 6.34 2 6 C2 7.65 2 9.3 2 11 C1.67 11 1.34 11 1 11 C0.67 7.37 0.34 3.74 0 0 Z " fill="#CDD0D4" transform="translate(621,674)"/>
<path d="M0 0 C1.85625 -0.061875 1.85625 -0.061875 3.75 -0.125 C4.79414062 -0.15980469 4.79414062 -0.15980469 5.859375 -0.1953125 C8 0 8 0 12 2 C9.03 2 6.06 2 3 2 C2.855625 2.7425 2.71125 3.485 2.5625 4.25 C2.09812508 6.52027739 1.58136431 8.75759479 1 11 C-0.28317892 7.15046324 -0.06643637 4.05261865 0 0 Z " fill="#4D5461" transform="translate(780,877)"/>
<path d="M0 0 C4.29 0.33 8.58 0.66 13 1 C13 1.66 13 2.32 13 3 C9.04 3 5.08 3 1 3 C0.67 2.01 0.34 1.02 0 0 Z " fill="#4C5562" transform="translate(905,754)"/>
<path d="M0 0 C0.99 0 1.98 0 3 0 C3.33 1.32 3.66 2.64 4 4 C2.02 4.99 0.04 5.98 -2 7 C-2.66 5.68 -3.32 4.36 -4 3 C-3.01 2.67 -2.02 2.34 -1 2 C-0.67 1.34 -0.34 0.68 0 0 Z " fill="#D1D4D8" transform="translate(1345,701)"/>
<path d="M0 0 C0.66 0.33 1.32 0.66 2 1 C-4.90697674 9.95348837 -4.90697674 9.95348837 -9 12 C-7.54718935 6.67302761 -3.91888622 3.63597198 0 0 Z " fill="#BDC1C7" transform="translate(1126,872)"/>
<path d="M0 0 C0.33 0.66 0.66 1.32 1 2 C1.66 2 2.32 2 3 2 C3.33 2.66 3.66 3.32 4 4 C4.99 3.67 5.98 3.34 7 3 C7.33 4.65 7.66 6.3 8 8 C2.25 6.25 2.25 6.25 0 4 C0 2.68 0 1.36 0 0 Z " fill="#C3C7CC" transform="translate(758,1395)"/>
<path d="M0 0 C1.65 0.33 3.3 0.66 5 1 C4.67 4.63 4.34 8.26 4 12 C3.67 12 3.34 12 3 12 C2.67 9.03 2.34 6.06 2 3 C0.68 3.33 -0.64 3.66 -2 4 C-1.34 2.68 -0.68 1.36 0 0 Z " fill="#061021" transform="translate(825,1397)"/>
<path d="M0 0 C2.11508435 2.11508435 2.54271788 3.12543877 3.3125 5.9375 C3.61607422 6.97197266 3.61607422 6.97197266 3.92578125 8.02734375 C3.95027344 8.67832031 3.97476563 9.32929687 4 10 C3.01 10.99 2.02 11.98 1 13 C0.67 8.71 0.34 4.42 0 0 Z " fill="#404855" transform="translate(668,904)"/>
<path d="M0 0 C0.66 0.33 1.32 0.66 2 1 C-0.31 3.31 -2.62 5.62 -5 8 C-5.66 6.68 -6.32 5.36 -7 4 C-1.7265625 0.77734375 -1.7265625 0.77734375 0 0 Z " fill="#37414E" transform="translate(630,574)"/>
<path d="M0 0 C1.42944945 2.35438733 2.08661261 3.48032433 1.625 6.25 C1.41875 6.8275 1.2125 7.405 1 8 C1.66 8.33 2.32 8.66 3 9 C0.5625 8.625 0.5625 8.625 -2 8 C-2.33 7.34 -2.66 6.68 -3 6 C-2.06553465 3.96855359 -1.06775224 1.96466413 0 0 Z " fill="#EEEFF1" transform="translate(818,881)"/>
<path d="M0 0 C0 0.33 0 0.66 0 1 C-5.44693314 1.09688221 -10.63904667 1.12862175 -16 0 C-16 -0.33 -16 -0.66 -16 -1 C-10.31150252 -2.49697302 -5.58190932 -1.3348044 0 0 Z " fill="#A4AAB1" transform="translate(1095,776)"/>
<path d="M0 0 C0.99 0.66 1.98 1.32 3 2 C-0.44615385 6.8 -0.44615385 6.8 -3.25 7.8125 C-4.11625 7.9053125 -4.11625 7.9053125 -5 8 C-3.62845496 5.04590299 -2.01136276 2.55991624 0 0 Z " fill="#25303E" transform="translate(593,603)"/>
<path d="M0 0 C1.32 0 2.64 0 4 0 C4 0.66 4 1.32 4 2 C4.66 2 5.32 2 6 2 C6 2.66 6 3.32 6 4 C3.69 4 1.38 4 -1 4 C-0.67 2.68 -0.34 1.36 0 0 Z " fill="#15202F" transform="translate(943,1416)"/>
<path d="M0 0 C1.134375 0.020625 2.26875 0.04125 3.4375 0.0625 C0.3120041 2.70715038 -2.65038267 3.90664715 -6.5625 5.0625 C-4.14811644 0.07277397 -4.14811644 0.07277397 0 0 Z " fill="#172232" transform="translate(758.5625,1388.9375)"/>
<path d="M0 0 C0.33 0 0.66 0 1 0 C2.01911045 3.89114901 2.16782969 5.60596507 0.5625 9.375 C0.046875 10.24125 -0.46875 11.1075 -1 12 C-2.45606519 7.47907032 -1.27032841 4.48351204 0 0 Z " fill="#ADB2B9" transform="translate(1097,947)"/>
<path d="M0 0 C3.3 0.99 6.6 1.98 10 3 C10 3.33 10 3.66 10 4 C7.36 4 4.72 4 2 4 C1.34 2.68 0.68 1.36 0 0 Z " fill="#DFE2E6" transform="translate(1075,771)"/>
<path d="M0 0 C1.32 0.33 2.64 0.66 4 1 C3.67 2.32 3.34 3.64 3 5 C1.35 5.33 -0.3 5.66 -2 6 C-1.49396008 3.83125748 -1.00016187 2.00032373 0 0 Z " fill="#DADEE1" transform="translate(554,767)"/>
<path d="M0 0 C0.28875 0.639375 0.5775 1.27875 0.875 1.9375 C1.82823451 4.15206079 1.82823451 4.15206079 4 5 C4 5.99 4 6.98 4 8 C3.34 8 2.68 8 2 8 C1.67 8.66 1.34 9.32 1 10 C-1.125 3.375 -1.125 3.375 0 0 Z " fill="#071425" transform="translate(1124,1406)"/>
<path d="M0 0 C0.66 1.32 1.32 2.64 2 4 C-0.31 5.98 -2.62 7.96 -5 10 C-3.66511872 6.40608886 -2.03977277 3.24509304 0 0 Z " fill="#A0A6AF" transform="translate(1074,1019)"/>
<path d="M0 0 C0.99 0 1.98 0 3 0 C3.99 1.98 4.98 3.96 6 6 C5.34 6.66 4.68 7.32 4 8 C0 2.25 0 2.25 0 0 Z " fill="#E3E5E8" transform="translate(704,970)"/>
<path d="M0 0 C2.625 1.25 2.625 1.25 5 3 C5 3.99 5 4.98 5 6 C2.11562221 4.70700306 0.12780579 3.34058637 -2 1 C-1.34 0.67 -0.68 0.34 0 0 Z " fill="#CDD1D5" transform="translate(665,772)"/>
<path d="M0 0 C0.66 0 1.32 0 2 0 C1.67 3.3 1.34 6.6 1 10 C0.01 8.68 -0.98 7.36 -2 6 C-1.1875 2.75 -1.1875 2.75 0 0 Z " fill="#9FA5AD" transform="translate(561,748)"/>
<path d="M0 0 C0.66 0.33 1.32 0.66 2 1 C0.19587357 4.26460973 -0.83394693 5.88929795 -4 8 C-4.99 7.67 -5.98 7.34 -7 7 C-4.69 4.69 -2.38 2.38 0 0 Z " fill="#303946" transform="translate(601,595)"/>
<path d="M0 0 C0.33 0 0.66 0 1 0 C0.67 3.96 0.34 7.92 0 12 C-0.99 10.68 -1.98 9.36 -3 8 C-2.3007918 5.08663251 -1.33508269 2.67016539 0 0 Z " fill="#26313F" transform="translate(1182,578)"/>
<path d="M0 0 C0.66 0.33 1.32 0.66 2 1 C1.67 1.66 1.34 2.32 1 3 C1.66 3.33 2.32 3.66 3 4 C0.525 5.485 0.525 5.485 -2 7 C-2.33 5.35 -2.66 3.7 -3 2 C-2.01 1.34 -1.02 0.68 0 0 Z " fill="#BDC0C5" transform="translate(634,571)"/>
<path d="M0 0 C0.99 0.33 1.98 0.66 3 1 C2.34 2.65 1.68 4.3 1 6 C-0.98 4.68 -2.96 3.36 -5 2 C-4.360625 1.855625 -3.72125 1.71125 -3.0625 1.5625 C-1.02454854 1.18992819 -1.02454854 1.18992819 0 0 Z " fill="#D4D7DB" transform="translate(834,898)"/>
<path d="M0 0 C1.65 0.33 3.3 0.66 5 1 C4.01 1.33 3.02 1.66 2 2 C2 2.66 2 3.32 2 4 C2.99 4.33 3.98 4.66 5 5 C2.03 4.67 -0.94 4.34 -4 4 C-2.68 3.67 -1.36 3.34 0 3 C0 2.01 0 1.02 0 0 Z " fill="#C0C4CA" transform="translate(869,746)"/>
<path d="M0 0 C0.66 0 1.32 0 2 0 C2 0.66 2 1.32 2 2 C2.99 2.33 3.98 2.66 5 3 C0.25 6 0.25 6 -2 6 C-1.34 4.02 -0.68 2.04 0 0 Z " fill="#DEDFE3" transform="translate(1008,506)"/>
<path d="M0 0 C1.98 0.99 1.98 0.99 4 2 C3.01 2 2.02 2 1 2 C0.67 1.34 0.34 0.68 0 0 Z M1 3 C2.32 3.66 3.64 4.32 5 5 C4.67 5.99 4.34 6.98 4 8 C2.68 7.01 1.36 6.02 0 5 C0.33 4.34 0.66 3.68 1 3 Z " fill="#0D1A2A" transform="translate(841,1390)"/>
<path d="M0 0 C-1.32 1.32 -2.64 2.64 -4 4 C-6.31 3.34 -8.62 2.68 -11 2 C-11 1.67 -11 1.34 -11 1 C-7.27569643 0.30710631 -3.78916254 -0.11144596 0 0 Z " fill="#3B4552" transform="translate(1228,1177)"/>
<path d="M0 0 C-1.39332574 3.36720387 -2.9789286 4.9859524 -6 7 C-6.66 6.67 -7.32 6.34 -8 6 C-7.0479279 4.99403703 -6.08812654 3.99538437 -5.125 3 C-4.59132813 2.443125 -4.05765625 1.88625 -3.5078125 1.3125 C-2 0 -2 0 0 0 Z " fill="#CBCFD4" transform="translate(1078,1072)"/>
<path d="M0 0 C1.32 0.99 2.64 1.98 4 3 C3.67 3.99 3.34 4.98 3 6 C1.68 5.67 0.36 5.34 -1 5 C-0.67 3.35 -0.34 1.7 0 0 Z " fill="#E4E6E9" transform="translate(836,900)"/>
<path d="M0 0 C2.475 0.99 2.475 0.99 5 2 C4.67 3.32 4.34 4.64 4 6 C3.01 5.67 2.02 5.34 1 5 C0.67 3.35 0.34 1.7 0 0 Z " fill="#0F1C2C" transform="translate(1334,683)"/>
<path d="M0 0 C0.66 0 1.32 0 2 0 C2.66 1.98 3.32 3.96 4 6 C1.525 5.01 1.525 5.01 -1 4 C-0.67 2.68 -0.34 1.36 0 0 Z " fill="#DFE2E5" transform="translate(810,987)"/>
<path d="M0 0 C2.475 0.495 2.475 0.495 5 1 C5.33 2.98 5.66 4.96 6 7 C1.125 2.25 1.125 2.25 0 0 Z " fill="#182332" transform="translate(830,891)"/>
<path d="M0 0 C1.32 0.33 2.64 0.66 4 1 C4.33 2.32 4.66 3.64 5 5 C2.69 4.34 0.38 3.68 -2 3 C-1.34 2.67 -0.68 2.34 0 2 C0 1.34 0 0.68 0 0 Z " fill="#BEC2C7" transform="translate(1072,770)"/>
<path d="M0 0 C0.66 0.33 1.32 0.66 2 1 C2 1.66 2 2.32 2 3 C0 5 0 5 -3 7 C-2.25 2.25 -2.25 2.25 0 0 Z " fill="#071324" transform="translate(754,1392)"/>
<path d="M0 0 C1.98 0.495 1.98 0.495 4 1 C3.67 1.99 3.34 2.98 3 4 C1.68 4 0.36 4 -1 4 C-0.67 2.68 -0.34 1.36 0 0 Z " fill="#021121" transform="translate(887,1390)"/>
<path d="M0 0 C1.65 0.33 3.3 0.66 5 1 C4.67 1.99 4.34 2.98 4 4 C1.525 3.01 1.525 3.01 -1 2 C-0.67 1.34 -0.34 0.68 0 0 Z " fill="#031023" transform="translate(760,1390)"/>
<path d="M0 0 C0.99 0 1.98 0 3 0 C3.33 1.65 3.66 3.3 4 5 C1.525 4.01 1.525 4.01 -1 3 C-0.67 2.01 -0.34 1.02 0 0 Z " fill="#1D2939" transform="translate(1203,1354)"/>
<path d="M0 0 C1.875 0.3125 1.875 0.3125 4 1 C4.66 1.99 5.32 2.98 6 4 C4.02 4.99 4.02 4.99 2 6 C1.34 4.02 0.68 2.04 0 0 Z " fill="#0E1A29" transform="translate(1267,1184)"/>
<path d="M0 0 C1.5 1.125 1.5 1.125 3 3 C3.1875 6.1875 3.1875 6.1875 3 9 C0.9375 6.75 0.9375 6.75 -1 4 C-0.75 1.6875 -0.75 1.6875 0 0 Z " fill="#222E3D" transform="translate(693,594)"/>
<path d="M0 0 C0.66 0.66 1.32 1.32 2 2 C-1.465 4.97 -1.465 4.97 -5 8 C-5.66 7.67 -6.32 7.34 -7 7 C-4.69 4.69 -2.38 2.38 0 0 Z " fill="#B9BEC6" transform="translate(625,581)"/>
<path d="M0 0 C-0.33 2.31 -0.66 4.62 -1 7 C-2.32 5.68 -3.64 4.36 -5 3 C-1.125 0 -1.125 0 0 0 Z " fill="#1B2634" transform="translate(1000,502)"/>
</svg>
